<?xml version="1.0" standalone="no"?>
<!DOCTYPE svg PUBLIC "-//W3C//DTD SVG 20010904//EN"
 "http://www.w3.org/TR/2001/REC-SVG-20010904/DTD/svg10.dtd">
<svg version="1.0" xmlns="http://www.w3.org/2000/svg"
 width="500.000000pt" height="500.000000pt" viewBox="0 0 500.000000 500.000000"
 preserveAspectRatio="xMidYMid meet">

<g transform="translate(0.000000,500.000000) scale(0.100000,-0.100000)"
fill="#000000" stroke="none">
<path d="M2040 4723 c-55 -21 -68 -86 -25 -129 19 -19 25 -35 25 -70 0 -43 -2
-46 -37 -61 -24 -10 -91 -19 -178 -24 -206 -12 -216 -16 -368 -157 -109 -100
-175 -138 -274 -157 -29 -6 -34 -3 -43 19 -5 15 -21 31 -35 38 -19 9 -25 19
-25 44 0 35 -19 60 -56 75 -76 28 -130 -79 -69 -135 19 -17 25 -33 25 -63 0
-48 19 -69 48 -54 16 9 26 -4 87 -117 38 -70 106 -192 151 -272 45 -80 89
-161 98 -180 9 -19 42 -82 73 -140 62 -112 83 -128 118 -90 18 20 17 22 -25
105 -24 46 -42 86 -40 88 3 2 30 11 60 20 69 21 159 74 233 137 32 27 91 66
133 86 72 36 78 37 222 44 140 7 213 22 248 51 9 7 19 -7 41 -60 l28 -71 48 0
c26 0 47 2 47 4 0 11 -188 445 -265 611 -93 201 -107 236 -95 250 16 19 2 63
-26 81 -18 12 -22 22 -18 43 10 49 -58 102 -106 84z m68 -69 c2 -19 -3 -36
-12 -44 -14 -11 -15 -9 -10 19 4 20 2 37 -7 47 -12 14 -11 16 6 13 14 -3 21
-14 23 -35z m-38 -15 c0 -5 -4 -9 -10 -9 -5 0 -10 7 -10 16 0 8 5 12 10 9 6
-3 10 -10 10 -16z m64 -58 c3 -5 -8 -14 -24 -20 -23 -8 -30 -7 -30 3 0 7 3 16
7 19 9 10 41 8 47 -2z m15 -34 c-13 -6 -36 -16 -51 -23 -16 -7 -28 -9 -28 -5
0 11 84 49 94 43 6 -3 -1 -10 -15 -15z m-2 -197 c28 -63 71 -157 94 -209 l43
-94 -22 -18 c-26 -21 -92 -45 -145 -54 -45 -7 -46 -3 20 -124 l45 -83 44 6
c25 3 66 15 93 27 l49 21 -45 95 c-24 52 -42 100 -40 106 2 7 28 -37 56 -98
60 -127 61 -122 -47 -155 -112 -35 -111 -36 -176 89 -52 102 -58 109 -92 115
-30 6 -124 -1 -124 -9 0 -1 22 -49 50 -106 27 -57 46 -107 42 -110 -4 -4 -24
-12 -44 -18 -20 -7 -53 -23 -73 -37 -20 -13 -39 -24 -43 -24 -9 0 -19 16 -73
115 l-42 79 39 33 c21 18 58 41 81 50 24 10 43 23 43 29 0 6 -24 54 -52 108
-48 88 -55 96 -77 91 -29 -7 -97 -54 -129 -87 l-23 -25 56 -94 c30 -52 55 -97
55 -101 0 -11 -96 -99 -140 -129 -21 -14 -64 -33 -96 -43 -103 -30 -99 -19
-39 -126 56 -97 61 -110 47 -110 -8 0 -67 101 -143 245 -20 39 -76 140 -123
225 -75 135 -84 156 -69 161 10 4 45 14 78 24 33 9 83 28 110 41 l50 24 -30
-25 c-32 -27 -109 -59 -167 -70 l-35 -7 55 -96 c30 -54 57 -99 59 -102 2 -2
34 4 71 13 83 22 162 69 212 125 l38 43 -40 72 c-22 40 -50 85 -61 101 l-20
28 54 50 c53 49 116 88 141 88 7 0 38 -48 68 -106 53 -103 55 -106 83 -100 16
3 53 6 83 6 l53 0 -55 108 -54 107 62 7 c35 3 86 15 113 26 28 11 57 19 65 19
8 -1 37 -51 67 -117z m-1119 -86 c39 -27 27 -83 -16 -76 -22 3 -28 9 -30 33
-1 16 3 29 9 29 6 0 9 -9 6 -20 -6 -24 12 -38 24 -19 12 20 12 23 -11 47 -24
26 -14 29 18 6z m63 -114 c19 -15 20 -19 8 -20 -9 0 -33 -11 -53 -25 -20 -13
-36 -21 -36 -16 0 12 32 38 60 51 l25 10 -27 -5 c-14 -3 -34 -8 -43 -11 -15
-6 -16 -4 -6 14 15 27 42 28 72 2z"/>
<path d="M2025 4430 c-22 -11 -66 -22 -97 -26 -32 -4 -58 -8 -58 -10 0 -3 23
-50 51 -105 l50 -101 62 7 c34 3 81 15 104 25 l42 19 -48 102 c-26 57 -52 104
-57 105 -5 1 -27 -6 -49 -16z"/>
<path d="M2253 4643 c-57 -4 -64 -14 -35 -49 17 -20 26 -21 242 -21 243 0 349
-12 535 -59 55 -15 117 -30 137 -35 131 -31 445 -191 596 -303 134 -99 356
-320 454 -451 369 -495 506 -1089 387 -1679 -42 -207 -122 -411 -240 -608
-234 -392 -568 -680 -1002 -866 -296 -127 -684 -185 -1018 -152 -611 61 -1148
364 -1515 855 -87 116 -239 395 -269 495 -8 25 -125 156 -125 139 0 -24 89
-239 150 -364 128 -261 299 -486 507 -667 124 -108 145 -123 268 -199 412
-256 876 -375 1334 -341 531 39 1048 273 1405 637 327 334 540 758 602 1201
13 94 15 166 11 339 -5 195 -9 236 -36 363 -82 388 -254 730 -517 1030 -361
413 -835 661 -1395 732 -78 9 -356 11 -476 3z"/>
<path d="M1955 4573 c-41 -11 -297 -94 -293 -97 8 -5 295 12 311 19 9 4 17 15
17 24 0 9 3 26 6 39 7 23 0 25 -41 15z"/>
<path d="M2283 4533 c-47 -4 -53 -7 -53 -26 1 -31 25 -73 34 -58 4 6 15 11 26
11 15 0 18 -11 22 -77 3 -43 10 -90 16 -105 l12 -28 127 0 c362 -1 745 -119
1056 -327 164 -110 358 -298 443 -431 101 -154 210 -390 264 -565 l21 -69 50
4 c33 2 50 -1 54 -10 5 -13 -33 -32 -66 -32 -10 0 -19 -4 -19 -10 0 -5 20 -10
44 -10 28 0 46 -5 49 -14 7 -18 -1 -26 -29 -26 -12 0 -29 -3 -38 -6 -30 -12
-16 -24 28 -24 28 0 46 -5 49 -14 8 -19 -1 -26 -34 -26 -15 0 -34 -3 -43 -6
-32 -12 -15 -24 34 -24 43 0 50 -3 50 -19 0 -15 -10 -20 -50 -26 -67 -9 -66
-30 2 -30 40 0 53 -4 53 -15 0 -11 -12 -15 -50 -15 l-50 0 -5 -79 c-5 -73 -7
-79 -28 -83 -13 -1 -36 -10 -52 -18 -40 -21 -59 -19 -53 4 3 10 23 27 44 37
22 10 44 25 50 35 14 27 10 235 -5 310 -25 116 -92 219 -164 248 -17 7 -35 25
-42 39 -16 40 -45 70 -74 82 l-26 10 0 157 c0 176 -11 218 -71 262 -67 50
-125 54 -925 58 l-741 4 -8 -138 c-4 -76 -10 -160 -14 -188 -6 -47 -8 -50 -41
-57 -19 -4 -125 -11 -235 -16 l-200 -8 -27 26 c-15 14 -28 31 -28 38 0 8 -5
10 -12 6 -7 -4 -1 6 15 23 43 46 32 103 -19 103 -46 0 -73 -62 -39 -90 8 -7
15 -21 15 -32 0 -32 -48 -86 -83 -93 -73 -15 -129 -38 -157 -67 -36 -36 -60
-88 -60 -131 l0 -30 -22 20 c-88 80 -224 67 -276 -26 -12 -21 -24 -55 -28 -77
-6 -41 -6 -41 -76 -59 -151 -39 -307 -190 -308 -298 0 -31 42 -63 98 -73 25
-5 32 -11 28 -23 -46 -139 -49 -158 -50 -293 -1 -76 -5 -138 -9 -138 -20 0
-66 32 -107 74 -68 70 -124 60 -119 -21 1 -21 -1 -45 -5 -54 -11 -25 8 -61 68
-129 36 -42 66 -89 86 -139 180 -442 538 -832 958 -1045 230 -116 390 -168
649 -213 124 -21 499 -24 618 -5 153 25 341 74 454 118 470 183 842 506 1074
931 124 227 170 359 212 608 44 264 41 477 -9 728 -51 249 -108 400 -240 629
-145 255 -346 482 -581 657 -163 122 -412 249 -605 309 -82 25 -298 68 -410
82 -79 9 -299 11 -417 3z m185 -166 l3 -97 -26 0 c-25 0 -25 0 -25 94 0 92 6
109 35 102 6 -2 11 -46 13 -99z m80 94 c10 -6 11 -29 6 -99 -7 -88 -8 -92 -30
-92 -24 0 -24 2 -24 93 0 52 3 97 7 100 9 9 25 9 41 -2z m-158 -96 c0 -88 -1
-95 -20 -95 -17 0 -20 7 -20 43 0 23 -3 66 -6 95 -7 51 -6 52 20 52 l26 0 0
-95z m245 23 c-10 -115 -13 -127 -36 -121 -21 6 -23 28 -13 132 6 56 9 61 31
61 25 0 25 0 18 -72z m94 38 c0 -11 -6 -55 -12 -96 -12 -71 -14 -75 -37 -72
-13 1 -25 3 -26 5 -3 3 16 168 21 183 2 7 15 9 29 7 19 -4 26 -11 25 -27z m91
7 c0 -12 -32 -188 -35 -191 -1 -2 -14 0 -27 3 l-24 6 15 95 c15 93 15 94 43
94 15 0 28 -3 28 -7z m72 -13 c13 0 5 -64 -17 -137 -12 -41 -20 -53 -35 -53
-23 0 -26 33 -11 103 6 23 13 55 16 70 4 21 10 27 21 23 9 -3 20 -6 26 -6z
m97 -21 c17 -6 31 -18 31 -27 0 -15 -39 -164 -45 -170 -2 -2 -22 2 -45 8 -27
7 -40 16 -37 24 3 7 13 49 23 94 11 45 24 82 30 82 6 0 25 -5 43 -11z m115
-39 c4 -5 -6 -49 -24 -98 -27 -76 -35 -89 -51 -85 -24 7 -24 4 3 113 20 83 23
90 42 84 12 -3 25 -10 30 -14z m71 -22 c14 -6 25 -14 25 -17 -3 -28 -68 -166
-80 -168 -39 -7 -41 11 -9 105 17 51 32 92 34 92 2 0 16 -5 30 -12z m85 -38
c17 -9 17 -14 -15 -92 -19 -46 -38 -84 -42 -85 -5 -2 -16 2 -25 9 -14 12 -13
21 15 96 18 45 35 82 40 82 5 0 17 -4 27 -10z m84 -33 c17 -12 15 -18 -25 -99
-37 -75 -45 -85 -61 -77 -24 13 -23 20 14 111 33 80 41 88 72 65z m77 -38 c19
-10 19 -13 -22 -87 -51 -95 -51 -95 -73 -79 -17 13 -16 18 19 95 21 45 42 82
47 82 5 0 18 -5 29 -11z m87 -58 c-2 -3 -21 -39 -43 -78 -33 -61 -43 -72 -60
-67 -11 4 -21 8 -23 9 -2 2 15 42 38 89 l41 86 25 -16 c13 -9 23 -20 22 -23z
m59 -26 c21 -15 21 -15 -30 -90 -51 -76 -65 -86 -86 -62 -8 10 0 30 34 83 25
38 45 72 45 77 0 11 14 8 37 -8z m74 -51 c17 -15 16 -20 -32 -90 -27 -41 -53
-74 -58 -74 -4 0 -15 8 -24 18 -14 16 -11 23 31 89 26 40 51 72 56 73 5 0 17
-7 27 -16z m72 -52 c14 -16 12 -21 -26 -74 -23 -31 -47 -64 -53 -75 -11 -17
-12 -17 -32 1 l-21 18 37 57 c42 65 62 91 72 91 4 0 14 -8 23 -18z m39 -131
c-72 -86 -70 -85 -87 -71 -22 19 -19 27 36 102 l52 69 23 -22 24 -22 -48 -56z
m98 9 c8 -15 0 -29 -49 -81 -51 -55 -61 -62 -75 -50 -9 7 -16 17 -16 22 0 15
112 139 121 134 5 -4 13 -15 19 -25z m15 -135 c-58 -66 -58 -66 -78 -46 -20
19 -20 20 38 86 58 66 58 66 78 46 20 -19 20 -20 -38 -86z m55 -55 c-36 -33
-69 -58 -75 -56 -25 7 -12 39 41 95 l57 62 21 -21 21 -21 -65 -59z m114 1 c23
-25 19 -30 -60 -86 -52 -36 -69 -43 -80 -34 -8 6 -14 17 -14 23 0 11 118 115
131 116 3 0 14 -9 23 -19z m62 -82 c11 -13 14 -23 8 -27 -6 -4 -38 -28 -71
-54 -34 -27 -64 -48 -66 -48 -3 0 -12 11 -21 24 -15 24 -15 25 52 75 37 28 70
51 73 51 3 0 14 -9 25 -21z m-411 -60 c50 -6 109 -19 132 -29 42 -18 84 -69
82 -100 0 -13 -1 -13 -7 0 -13 29 -37 57 -58 68 -48 26 -215 49 -384 54 l-95
2 -6 -59 c-4 -33 -16 -124 -28 -202 -23 -154 -20 -180 23 -209 21 -13 39 -15
98 -9 74 6 319 31 416 42 78 9 65 -13 -15 -26 -199 -31 -454 -56 -488 -47 -15
4 -30 23 -45 58 -25 57 -25 43 12 310 l21 157 51 3 c71 5 185 -1 291 -13z
m472 -26 c13 -20 10 -24 -58 -71 -40 -28 -77 -49 -81 -46 -4 3 -13 14 -18 24
-9 17 -2 26 57 70 38 27 72 48 77 47 5 -2 16 -12 23 -24z m-1784 0 c6 -9 -122
-8 -130 1 -4 3 23 6 60 6 36 0 68 -3 70 -7z m660 -10 c-117 -2 -309 -2 -425 0
-117 1 -22 2 212 2 234 0 329 -1 213 -2z m707 -11 c21 -5 -33 -6 -130 -4 -91
2 -172 8 -180 14 -18 11 257 3 310 -10z m-1513 -94 c-4 -51 -12 -115 -17 -143
-8 -41 -8 -35 -4 35 7 126 16 200 23 200 4 0 3 -42 -2 -92z m62 56 c1 15 7 17
34 12 17 -3 81 -8 141 -11 61 -3 112 -7 114 -9 2 -3 28 7 58 20 30 13 54 22
54 20 0 -2 -21 -16 -46 -31 -31 -18 -43 -30 -36 -37 7 -7 29 -1 69 17 72 33
133 56 133 49 0 -3 -38 -23 -84 -44 -146 -67 -119 -85 29 -20 50 22 81 33 70
25 -10 -8 -55 -30 -98 -47 l-79 -33 5 -36 5 -36 -122 -7 c-66 -4 -152 -13
-191 -21 -38 -7 -72 -11 -74 -9 -2 2 0 40 6 84 5 45 5 84 1 86 -4 3 -8 -6 -8
-19 0 -13 -3 -58 -6 -100 l-7 -76 34 9 c19 6 98 15 177 20 188 13 435 -2 604
-36 71 -14 132 -22 138 -19 5 3 10 21 10 38 l0 32 -55 0 c-30 -1 -55 1 -55 2
0 2 21 17 47 33 63 40 48 38 -37 -5 -94 -47 -111 -44 -28 5 37 23 70 45 73 50
9 14 -84 -23 -150 -61 -30 -17 -55 -29 -55 -26 0 8 78 56 174 107 l95 50 4
-27 c2 -18 5 -11 6 19 0 26 6 50 12 54 9 5 10 -5 7 -37 -3 -24 -12 -92 -19
-151 -16 -127 2 -119 -179 -83 -251 49 -532 57 -742 22 -51 -9 -78 -10 -78 -3
0 34 22 244 27 256 4 10 8 5 13 -15 4 -17 8 -22 9 -11z m1021 16 c0 -10 -4
-41 -9 -67 -5 -26 -15 -85 -22 -131 -19 -137 -21 -85 -2 72 10 80 21 146 25
146 5 0 8 -9 8 -20z m497 4 c-3 -3 -12 -4 -19 -1 -8 3 -5 6 6 6 11 1 17 -2 13
-5z m413 -64 c0 -5 -34 -27 -76 -49 -72 -39 -77 -40 -90 -24 -7 10 -12 21 -11
25 1 4 34 27 72 52 69 43 70 43 88 24 9 -11 17 -24 17 -28z m-400 30 c8 -5 11
-10 5 -10 -5 0 -17 5 -25 10 -8 5 -10 10 -5 10 6 0 17 -5 25 -10z m50 -41 c15
-28 5 -23 -15 7 -9 15 -12 23 -6 20 6 -4 16 -16 21 -27z m37 -96 c-2 -16 -4
-3 -4 27 0 30 2 43 4 28 2 -16 2 -40 0 -55z m351 52 c7 -14 12 -28 12 -30 0
-3 -37 -23 -82 -46 -77 -39 -82 -40 -95 -23 -7 10 -12 22 -10 28 3 8 145 94
158 95 3 1 11 -10 17 -24z m-653 -15 c15 -14 25 -34 25 -52 l0 -29 -137 6
c-76 4 -143 8 -149 10 -6 2 -9 18 -7 37 8 63 3 61 128 56 104 -4 117 -7 140
-28z m-1957 -26 c4 -29 -23 -51 -43 -34 -18 15 -19 32 -3 48 18 18 42 10 46
-14z m2652 -45 c18 -33 7 -44 -76 -79 -74 -30 -78 -31 -91 -14 -7 10 -13 20
-13 23 0 6 149 88 162 90 4 1 12 -8 18 -20z m-393 -76 c-2 -16 -4 -3 -4 27 0
30 2 43 4 28 2 -16 2 -40 0 -55z m-1002 12 c121 -19 242 -47 283 -68 25 -12
29 -11 48 16 l22 28 17 -44 c23 -60 18 -92 -15 -92 -19 0 -26 7 -32 30 -6 25
-6 22 -5 -14 3 -42 2 -43 -12 -20 -68 107 -185 144 -556 175 l-160 13 150 -4
c83 -2 199 -11 260 -20z m-123 -20 c190 -19 302 -51 358 -101 47 -43 73 -105
67 -165 l-4 -44 -1 47 c-2 46 -2 47 -29 38 -46 -14 -133 -22 -133 -11 0 11 38
20 103 23 49 2 58 14 37 48 -9 15 -35 16 -132 4 l-48 -6 16 -30 c8 -16 13 -37
11 -46 -3 -15 -5 -14 -12 3 -17 41 -47 75 -66 75 -11 0 -18 4 -15 8 9 14 -163
99 -244 121 -41 11 -129 25 -194 31 -66 6 -122 13 -125 15 -10 11 270 4 411
-10z m1558 -4 c5 -11 10 -24 10 -29 0 -15 -74 -42 -81 -30 -4 6 -21 3 -45 -7
-40 -17 -64 -14 -64 7 0 11 137 76 162 78 4 0 12 -9 18 -19z m-2707 2 c-7 -2
-19 -2 -25 0 -7 3 -2 5 12 5 14 0 19 -2 13 -5z m34 -27 c3 -3 -15 -6 -40 -6
-26 0 -47 3 -47 8 0 9 78 8 87 -2z m907 -2 c50 -9 116 -25 146 -36 71 -24 149
-83 175 -131 18 -34 24 -37 63 -37 23 0 42 -4 42 -8 0 -4 -82 -16 -182 -25
-101 -10 -201 -21 -223 -26 -22 -5 -58 -7 -80 -4 -32 3 -37 2 -25 -7 12 -9 3
-10 -38 -6 -35 3 -51 2 -46 -5 4 -7 -13 -9 -52 -5 -43 4 -54 3 -39 -4 15 -7 3
-9 -45 -5 -46 3 -58 2 -40 -5 18 -6 3 -8 -50 -5 -56 3 -65 2 -35 -4 32 -7 24
-8 -42 -7 l-81 1 -12 40 c-30 99 -58 129 -187 205 -82 48 -77 51 14 8 86 -40
153 -107 178 -176 15 -40 24 -52 40 -52 11 0 144 13 295 29 151 16 335 35 408
41 110 11 132 15 132 29 -1 25 -40 68 -49 53 -7 -12 -106 -22 -451 -42 -102
-6 -206 -13 -232 -16 -31 -3 -48 -1 -48 5 0 6 -7 11 -16 11 -8 0 -12 -4 -9
-10 10 -16 -1 -11 -16 7 -8 9 -9 14 -2 10 6 -4 13 -3 15 3 1 5 134 23 293 39
160 17 318 33 352 37 47 5 67 3 80 -7 12 -10 15 -11 9 -1 -4 7 -35 26 -68 42
-34 17 -58 27 -54 23 8 -8 -441 -48 -634 -56 -69 -3 -113 -3 -97 0 15 2 27 7
27 11 0 4 21 7 47 6 34 -1 37 0 13 3 -19 2 -39 9 -44 14 -14 12 40 12 84 -2
22 -6 78 -7 155 -3 l120 8 -79 8 c-43 4 -80 9 -82 11 -2 2 56 3 129 3 85 0
116 -3 87 -7 -25 -4 5 -5 65 -2 122 6 151 13 59 14 -78 1 -119 17 -49 19 l50
2 -40 9 c-38 9 -134 5 -470 -21 -146 -12 -251 -13 -241 -2 11 11 391 39 550
41 90 1 172 -5 230 -15z m-901 -31 c-7 -2 -19 -2 -25 0 -7 3 -2 5 12 5 14 0
19 -2 13 -5z m670 0 c-7 -2 -19 -2 -25 0 -7 3 -2 5 12 5 14 0 19 -2 13 -5z
m-536 -45 c36 -18 87 -52 114 -76 63 -57 92 -144 41 -125 -29 11 -71 46 -66
54 5 9 -117 92 -160 109 -43 16 -29 -5 19 -28 25 -12 48 -23 53 -24 11 -3 62
-61 62 -70 0 -19 -39 -6 -65 22 -29 30 -118 70 -155 70 -11 0 -20 5 -20 10 0
6 -15 10 -34 10 -19 0 -38 5 -41 10 -4 6 -11 8 -16 5 -5 -4 -9 -1 -9 4 0 6 -7
11 -15 11 -8 0 -15 5 -15 11 0 8 17 10 55 5 67 -8 75 10 9 20 -45 6 -91 2
-129 -12 -11 -4 -17 -4 -13 0 21 24 89 35 201 31 111 -3 123 -5 184 -37z m393
23 l45 -8 -60 -1 c-33 0 -69 3 -80 8 -16 7 -13 9 15 9 19 0 55 -4 80 -8z
m2065 -36 c0 -24 -63 -44 -76 -23 -13 21 -11 26 19 36 38 15 57 10 57 -13z
m125 -1 c13 -34 13 -33 -12 -43 -63 -23 -65 -23 -77 9 -10 30 -9 32 22 45 46
20 56 18 67 -11z m-2910 6 c0 -5 -19 -14 -42 -20 -24 -6 -53 -15 -65 -20 -15
-6 -23 -6 -23 1 0 5 14 16 30 23 17 7 28 14 26 17 -2 2 13 5 35 6 21 2 39 -2
39 -7z m2492 -27 c9 -10 21 -29 28 -43 l13 -24 -26 17 c-22 14 -34 15 -77 6
-28 -6 -53 -9 -56 -7 -2 3 21 10 51 17 55 12 75 31 33 31 -13 0 -84 -9 -158
-20 -74 -12 -164 -23 -200 -26 -36 -3 -131 -10 -212 -17 -82 -7 -148 -9 -148
-5 0 4 2 8 5 8 29 0 510 54 575 64 121 19 154 19 172 -1z m-2324 -52 c95 -26
142 -51 142 -74 0 -5 -8 0 -17 11 -10 11 -38 27 -63 35 l-45 15 -6 -96 -5 -97
-2 98 c-2 79 -5 97 -17 97 -13 0 -15 -64 -15 -515 0 -380 -3 -515 -11 -515 -9
0 -10 132 -6 519 l7 519 -31 6 c-18 3 -44 6 -60 6 l-29 0 -2 -540 c-3 -474 -1
-540 12 -541 11 -1 10 -3 -2 -6 -15 -4 -18 -17 -20 -71 l-2 -67 -5 68 -6 67
-104 88 c-57 48 -106 93 -109 101 -3 8 8 3 24 -12 15 -14 29 -25 31 -23 2 1 4
203 5 448 3 361 6 448 17 462 19 23 96 44 162 45 33 1 97 -11 157 -28z m2646
13 c3 -9 6 -17 6 -19 0 -8 -71 -26 -80 -20 -20 13 -9 35 23 44 45 13 44 13 51
-5z m-2754 -545 c0 -339 -3 -519 -10 -519 -7 0 -10 182 -10 526 0 347 3 523
10 519 6 -4 10 -190 10 -526z m2293 524 c-7 -2 -19 -2 -25 0 -7 3 -2 5 12 5
14 0 19 -2 13 -5z m-2266 -775 c-1 -145 -2 -29 -2 257 0 286 1 404 2 263 2
-141 2 -375 0 -520z m2201 765 c-10 -2 -26 -2 -35 0 -10 3 -2 5 17 5 19 0 27
-2 18 -5z m657 -13 c9 -28 0 -38 -41 -46 -40 -7 -40 -8 -49 28 -6 22 -3 27 17
31 51 10 67 7 73 -13z m-3179 -33 c43 -47 65 -126 48 -171 -3 -9 -10 -13 -15
-10 -5 3 -9 -10 -9 -28 -1 -45 -33 -113 -64 -133 -34 -23 -92 -22 -125 2 -35
26 -73 84 -66 100 3 9 0 11 -7 7 -7 -5 -9 1 -6 19 3 16 1 24 -5 20 -19 -11 2
117 25 158 33 59 72 81 137 76 47 -3 59 -9 87 -40z m2447 36 c-7 -2 -21 -2
-30 0 -10 3 -4 5 12 5 17 0 24 -2 18 -5z m-60 -10 c-7 -2 -21 -2 -30 0 -10 3
-4 5 12 5 17 0 24 -2 18 -5z m-1923 -60 c0 -18 -4 -33 -10 -33 -5 0 -10 21
-10 48 0 34 3 43 10 32 5 -8 10 -30 10 -47z m1843 50 c-7 -2 -19 -2 -25 0 -7
3 -2 5 12 5 14 0 19 -2 13 -5z m517 -13 c41 -21 75 -60 105 -120 l18 -35 -26
24 c-22 19 -33 23 -64 18 -35 -6 -36 -5 -19 8 11 8 30 15 43 15 24 0 24 0 6
24 -23 30 -72 65 -109 76 -17 5 -22 9 -11 9 10 1 35 -8 57 -19z m244 5 c3 -9
0 -18 -7 -20 -6 -2 -24 -9 -39 -14 -21 -8 -28 -7 -32 5 -12 32 -10 33 60 43 7
0 15 -6 18 -14z m-2567 -32 c-3 -10 -5 -4 -5 12 0 17 2 24 5 18 2 -7 2 -21 0
-30z m2256 17 c12 0 37 -9 55 -20 l33 -20 -28 -24 c-38 -32 -82 -114 -110
-206 -20 -64 -22 -68 -18 -30 l5 45 -15 -35 -14 -35 5 38 c8 46 -2 49 -16 5
-10 -33 -10 -33 -5 7 l4 40 -15 -30 -15 -30 6 34 c7 45 -2 35 -19 -20 -9 -27
-15 -36 -16 -24 -2 17 -3 17 -11 -5 -7 -21 -8 -18 -5 15 2 22 1 31 -2 20 l-4
-20 -9 20 c-6 14 -7 7 -4 -20 4 -32 3 -36 -5 -20 -8 16 -9 13 -5 -15 4 -25 2
-31 -5 -20 -8 13 -10 12 -11 -5 0 -11 -3 -14 -6 -8 -7 18 23 117 59 197 17 39
31 76 31 83 0 22 86 95 103 89 9 -3 25 -6 37 -6z m-1035 -17 c-10 -2 -26 -2
-35 0 -10 3 -2 5 17 5 19 0 27 -2 18 -5z m-68 -7 c0 -2 -13 -6 -29 -8 -17 -2
-28 -1 -25 4 5 8 54 12 54 4z m-969 -32 c40 -20 104 -98 117 -142 13 -44 15
-97 3 -126 -6 -15 -10 -11 -23 25 -9 24 -18 53 -21 64 -2 11 -4 -16 -4 -60 1
-103 -22 -153 -86 -184 -53 -26 -80 -26 -133 -2 -115 52 -164 212 -104 336 20
41 85 97 125 108 28 7 95 -3 126 -19z m899 22 c0 -2 -13 -6 -30 -8 -16 -3 -30
-1 -30 4 0 4 14 8 30 8 17 0 30 -2 30 -4z m259 -14 c7 -13 6 -23 -1 -30 -19
-19 -27 -14 -20 11 5 20 4 21 -11 8 -15 -11 -17 -11 -17 1 0 32 34 39 49 10z
m1245 2 c10 -25 -2 -34 -45 -34 -32 0 -39 3 -39 19 0 15 8 21 33 24 17 2 35 5
38 5 4 1 10 -5 13 -14z m-1609 -4 c-40 -8 -198 -32 -473 -70 -136 -19 -221
-25 -211 -16 2 3 128 21 279 41 151 20 295 40 320 45 25 4 63 8 85 8 l40 0
-40 -8z m255 -20 c0 -16 -4 -30 -10 -30 -5 0 -10 12 -10 26 0 24 -2 25 -37 20
-292 -45 -570 -86 -618 -91 -89 -10 -149 -25 -157 -38 -4 -7 -8 -46 -8 -87 0
-41 -4 -100 -8 -130 -6 -48 -8 -37 -12 75 -3 72 -2 138 2 147 10 22 15 23 223
54 99 14 261 38 360 54 99 15 201 28 228 29 46 1 47 0 47 -29z m1474 4 c8 -32
7 -33 -39 -41 -26 -4 -40 -2 -46 8 -15 23 -10 39 14 49 42 17 64 12 71 -16z
m-1132 -3 c63 -10 68 -17 22 -30 -22 -6 -50 -18 -64 -28 l-25 -17 20 23 c11
13 29 27 40 32 14 7 9 8 -18 4 -23 -4 -44 -1 -53 6 -22 18 -17 32 9 24 12 -4
43 -10 69 -14z m-435 -63 c-2 -13 -4 -3 -4 22 0 25 2 35 4 23 2 -13 2 -33 0
-45z m-40 -45 c-2 -21 -4 -6 -4 32 0 39 2 55 4 38 2 -18 2 -50 0 -70z m-27 5
c0 -31 -4 -60 -10 -63 -6 -4 -10 22 -10 72 0 54 3 73 10 63 5 -8 10 -41 10
-72z m-80 -43 c0 -70 -4 -115 -10 -115 -6 0 -10 45 -10 115 0 70 4 115 10 115
6 0 10 -45 10 -115z m40 14 c0 -64 -4 -98 -10 -94 -6 3 -10 48 -10 101 0 56 4
94 10 94 6 0 10 -40 10 -101z m-120 -20 c0 -59 -4 -99 -10 -99 -6 0 -10 42
-10 106 0 67 4 103 10 99 6 -3 10 -50 10 -106z m40 7 c0 -59 -4 -108 -10 -111
-6 -4 -10 33 -10 104 0 67 4 111 10 111 6 0 10 -41 10 -104z m335 94 c-3 -5
13 -7 43 -3 56 6 130 -21 164 -60 25 -27 61 -97 55 -104 -3 -2 -8 5 -12 17 -4
12 -20 37 -37 56 -25 28 -37 34 -69 34 -72 0 -140 -81 -203 -243 -14 -34 -18
-37 -36 -27 -12 6 -20 21 -20 36 0 31 50 142 85 188 15 19 28 43 29 52 1 9 13
23 27 31 16 9 17 12 4 7 -11 -4 -31 -7 -44 -7 -38 1 -102 -71 -141 -159 -31
-73 -50 -92 -65 -68 -10 16 48 130 86 172 19 21 57 49 84 62 57 29 58 29 50
16z m-428 -152 c-2 -29 -3 -6 -3 52 0 58 1 81 3 53 2 -29 2 -77 0 -105z m-77
41 c0 -58 -4 -88 -10 -84 -5 3 -10 47 -10 96 0 58 4 88 10 84 6 -3 10 -47 10
-96z m38 4 l-1 -98 -7 90 c-6 84 -5 105 6 105 2 0 3 -44 2 -97z m1517 87 c-3
-5 2 -10 13 -10 45 0 72 -72 72 -191 0 -120 -39 -286 -91 -391 -41 -82 -130
-92 -144 -17 -7 36 19 59 34 30 8 -13 17 -18 29 -14 28 10 52 35 45 47 -3 6
-3 8 2 4 12 -12 34 24 61 105 19 54 27 99 30 180 3 67 1 107 -5 107 -6 0 -8 6
-5 13 3 8 -2 20 -10 27 -9 7 -14 16 -11 20 9 14 -35 22 -51 9 -12 -10 -13 -9
-7 7 3 10 13 29 21 42 8 12 11 22 8 22 -4 0 -4 5 -1 10 3 6 8 10 11 10 3 0 2
-4 -1 -10z m-1595 -90 c0 -53 -4 -90 -10 -90 -6 0 -10 37 -10 90 0 53 4 90 10
90 6 0 10 -37 10 -90z m-91 -17 l-2 -98 -9 83 c-9 76 -7 112 7 112 3 0 4 -44
4 -97z m40 5 c-1 -77 -3 -86 -10 -53 -11 56 -11 145 1 145 6 0 10 -37 9 -92z
m548 51 c-20 -22 -52 -71 -72 -107 -20 -37 -33 -56 -30 -42 9 34 63 123 97
160 41 45 45 36 5 -11z m1489 16 c8 -32 5 -35 -44 -42 -36 -5 -40 -3 -46 22
-8 33 5 45 51 45 27 0 34 -5 39 -25z m-2167 -87 c-1 -82 -3 -95 -10 -63 -15
73 -11 165 8 165 2 0 2 -46 2 -102z m51 7 c0 -52 -4 -95 -9 -95 -9 0 -22 169
-14 183 15 26 23 -5 23 -88z m1677 48 c-38 -76 -66 -170 -91 -309 -13 -71 -25
-120 -25 -108 -2 39 31 209 56 289 24 77 68 175 78 175 3 0 -5 -21 -18 -47z
m-1757 -54 c0 -57 -4 -88 -10 -84 -5 3 -10 20 -10 36 0 53 -20 21 -21 -34 -2
-81 -16 -11 -18 87 -1 66 1 77 14 72 8 -3 15 -1 15 4 0 6 7 10 15 10 12 0 15
-17 15 -91z m750 87 c0 -2 -14 -21 -31 -42 -18 -22 -49 -75 -71 -119 -21 -44
-36 -69 -32 -55 11 41 71 155 99 188 25 29 35 38 35 28z m-820 -105 c0 -121
-13 -165 -20 -71 l-6 65 -9 -75 c-8 -74 -9 -74 -17 -35 -12 56 -6 197 9 202 6
2 13 -8 16 -24 4 -27 4 -27 6 5 0 17 6 32 11 32 6 0 10 -40 10 -99z m1021 57
c60 -63 96 -217 84 -363 -12 -143 -50 -296 -63 -255 -3 8 -9 18 -14 21 -13 9
2 80 15 72 7 -4 8 0 3 12 -4 11 -2 22 6 26 9 6 14 48 15 151 2 105 0 139 -8
128 -8 -11 -9 -7 -5 20 3 20 2 29 -2 22 -6 -9 -13 0 -22 28 -14 42 -42 70 -70
70 -22 0 -87 -65 -109 -108 -10 -21 -24 -57 -31 -82 -7 -25 -15 -39 -17 -32
-3 6 -11 12 -19 12 -20 0 -18 17 11 102 14 40 25 74 25 76 0 2 5 0 12 -4 7 -4
8 -3 4 4 -7 12 63 91 99 110 32 18 62 14 86 -10z m-2236 -44 l28 -56 -29 -24
c-16 -13 -31 -23 -35 -24 -3 0 -29 -32 -59 -70 -37 -49 -56 -68 -64 -60 -5 5
-18 10 -28 10 -10 0 -36 7 -57 16 l-40 16 24 48 c13 26 50 71 82 99 32 29 50
49 41 45 -36 -13 -17 6 30 30 68 36 76 34 107 -30z m-194 -9 c-34 -25 -74 -65
-89 -89 -50 -81 -53 -84 -41 -52 16 47 64 105 120 147 28 22 56 39 61 39 6 0
-17 -20 -51 -45z m1296 -137 c-2 -29 -3 -6 -3 52 0 58 1 81 3 53 2 -29 2 -77
0 -105z m2391 115 c3 -33 3 -33 -42 -33 -39 0 -46 3 -46 20 0 11 0 23 -1 28 0
9 40 21 66 19 15 -2 21 -10 23 -34z m-3706 -33 c-34 -33 -62 -65 -62 -73 0 -7
-7 -22 -15 -33 -14 -17 -14 -14 0 21 16 39 110 145 129 145 5 0 -18 -27 -52
-60z m2536 -25 c0 -16 -2 -15 -8 5 -11 34 -11 60 0 35 5 -11 8 -29 8 -40z
m-2028 0 c19 -23 8 -26 -20 -5 -19 15 -21 20 -9 20 9 0 22 -7 29 -15z m1421
-1 c45 -10 89 -29 127 -54 115 -77 163 -128 342 -364 41 -54 95 -116 120 -139
45 -40 41 -41 -13 -4 -16 11 -87 93 -159 184 -166 208 -282 311 -404 355 -84
30 -234 30 -324 -1 -167 -58 -335 -191 -456 -359 -44 -61 -85 -118 -91 -128
-10 -15 -10 -13 -1 11 17 44 129 203 176 252 118 121 270 216 398 247 80 19
201 19 285 0z m405 -23 c-10 -11 -28 -46 -42 -78 -13 -32 -24 -51 -24 -43 0
33 60 140 78 140 3 0 -3 -9 -12 -19z m954 9 c0 -5 -2 -10 -4 -10 -3 0 -8 5
-11 10 -3 6 -1 10 4 10 6 0 11 -4 11 -10z m-35 -18 c-3 -3 -11 0 -18 7 -9 10
-8 11 6 5 10 -3 15 -9 12 -12z m465 -17 c0 -35 0 -35 -44 -35 -40 0 -44 2 -49
27 -6 34 6 43 56 43 36 0 37 -1 37 -35z m-3250 -65 c30 -26 53 -50 50 -53 -6
-7 -179 124 -180 136 0 15 74 -33 130 -83z m2077 68 c-3 -8 -6 -5 -6 6 -1 11
2 17 5 13 3 -3 4 -12 1 -19z m440 -15 c-3 -10 -5 -4 -5 12 0 17 2 24 5 18 2
-7 2 -21 0 -30z m-2110 -275 c-1 -57 -3 -11 -3 102 0 113 2 159 3 103 2 -57 2
-149 0 -205z m2438 245 c-8 -70 -24 -125 -34 -118 -10 6 -3 99 11 143 16 53
30 38 23 -25z m-40 26 c-10 -15 -25 -10 -19 6 4 8 10 12 15 9 5 -3 7 -10 4
-15z m-1338 -21 c30 -11 69 -33 87 -49 l31 -28 -25 -1 c-57 0 -172 -69 -261
-155 -99 -96 -116 -105 -234 -140 -100 -29 -98 -28 -90 -15 3 6 2 10 -4 10 -5
0 -12 -4 -16 -9 -5 -9 -61 1 -72 13 -3 3 7 22 22 43 l28 38 -37 -37 c-36 -38
-62 -53 -34 -20 8 9 36 49 62 87 40 59 42 64 14 35 -18 -20 -52 -58 -76 -85
-26 -30 -36 -38 -26 -20 49 83 152 187 244 247 94 62 99 67 30 33 -108 -54
-194 -129 -288 -250 l-23 -30 22 42 c50 94 185 210 312 268 123 57 226 64 334
23z m-1567 2 c6 -12 9 -33 7 -48 -4 -26 -4 -26 -6 4 -1 29 -16 54 -34 54 -5 0
-1 -7 7 -16 22 -22 22 -66 -1 -57 -12 5 -14 3 -9 -8 4 -8 0 -5 -8 5 -19 23
-21 57 -4 74 18 18 36 15 48 -8z m2025 -25 l2 -34 -28 16 c-16 10 -31 23 -34
30 -3 9 0 11 6 7 6 -4 15 0 21 7 7 12 8 11 6 -1 -2 -8 2 -15 7 -15 6 0 9 9 7
19 -1 11 1 16 5 12 4 -4 8 -22 8 -41z m840 34 c11 -16 1 -19 -13 -3 -7 8 -8
14 -3 14 5 0 13 -5 16 -11z m35 -30 c0 -6 -4 -7 -10 -4 -5 3 -10 11 -10 16 0
6 5 7 10 4 6 -3 10 -11 10 -16z m-3228 -81 c44 -50 63 -142 63 -302 0 -94 -4
-140 -11 -143 -8 -3 -13 44 -17 154 -8 239 -27 282 -147 328 -107 41 -114 57
-10 24 70 -23 102 -39 122 -61z m2935 70 c-3 -8 -6 -5 -6 6 -1 11 2 17 5 13 3
-3 4 -12 1 -19z m639 -34 c-3 -25 -8 -50 -12 -55 -9 -15 -84 54 -84 79 0 20 5
22 51 22 l52 0 -7 -46z m-2687 -91 c-1 -99 -3 -118 -10 -83 -8 47 -10 190 -2
203 11 18 13 -1 12 -120z m301 77 c0 -36 -4 -50 -14 -50 -29 0 -36 73 -8 89 9
6 18 11 20 11 1 0 2 -22 2 -50z m1225 -56 c0 -43 -5 -77 -13 -86 -7 -9 -10
-22 -7 -30 3 -8 -1 -21 -10 -28 -12 -10 -18 -10 -31 1 -13 10 -15 28 -11 95 5
75 14 109 40 142 18 23 31 -16 32 -94z m-71 55 c-2 -4 -18 -7 -33 -6 -16 1
-27 5 -24 10 2 4 -1 7 -6 7 -6 0 -11 5 -11 12 0 9 3 9 12 0 7 -7 19 -12 28
-11 10 0 11 2 2 6 -6 2 -9 9 -6 15 3 5 14 2 25 -8 10 -9 16 -20 13 -25z m1277
-140 c-34 -32 -65 -59 -70 -59 -16 0 -71 70 -71 90 0 27 9 25 49 -10 19 -16
38 -27 43 -24 5 3 -14 24 -42 46 -29 23 -50 48 -50 59 0 25 2 25 61 -17 36
-26 48 -41 44 -53 -5 -12 -3 -13 5 -5 8 8 8 18 -1 36 -14 31 8 70 56 99 l30
19 3 -61 3 -61 -60 -59z m-419 139 c-8 -8 -9 -4 -5 13 4 13 8 18 11 10 2 -7
-1 -18 -6 -23z m-2275 -120 c-2 -29 -3 -8 -3 47 0 55 1 79 3 53 2 -26 2 -71 0
-100z m215 81 c46 -30 61 -49 36 -49 -6 0 -21 9 -32 19 -12 11 -43 31 -71 46
-47 26 -48 27 -16 21 19 -3 56 -20 83 -37z m1085 9 c-3 -7 -5 -2 -5 12 0 14 2
19 5 13 2 -7 2 -19 0 -25z m-1260 -90 c-2 -24 -4 -7 -4 37 0 44 2 63 4 43 2
-21 2 -57 0 -80z m1354 87 c5 4 9 2 9 -3 0 -14 -25 -21 -40 -12 -11 7 -11 11
1 26 13 16 14 16 17 0 2 -9 8 -14 13 -11z m-1293 -14 c-7 -9 -14 -18 -15 -20
-2 -2 -3 8 -3 22 0 20 4 25 15 21 13 -5 13 -9 3 -23z m-635 -11 c29 -23 51
-80 42 -110 -10 -30 -22 -24 -46 23 -12 23 -31 52 -42 65 -38 41 -97 20 -78
-29 l10 -24 2 25 c1 18 3 20 6 7 3 -13 8 -15 17 -8 9 8 17 -1 31 -35 12 -29
21 -41 26 -32 5 8 11 4 18 -15 15 -38 14 -70 -1 -61 -7 5 -9 2 -5 -8 6 -18
-21 -48 -44 -48 -19 0 -54 25 -55 39 -1 6 -2 16 -3 22 0 5 -5 7 -11 4 -6 -4
-7 1 -3 11 5 13 3 15 -7 9 -10 -6 -12 -4 -6 10 4 10 2 21 -5 25 -7 5 -9 22 -4
51 15 86 97 127 158 79z m56 -27 c17 -37 9 -36 -16 3 -12 18 -16 30 -8 28 7
-3 18 -17 24 -31z m676 12 c25 -24 33 -55 16 -55 -5 0 -12 9 -16 19 -3 11 -12
25 -21 32 -13 10 -13 8 -4 -15 5 -15 10 -35 9 -44 0 -9 -7 4 -15 30 -8 28 -21
48 -32 51 -10 3 -6 5 11 6 17 1 37 -8 52 -24z m996 15 c20 -6 53 -26 75 -46
38 -34 38 -35 4 -10 -80 57 -160 64 -241 20 -56 -31 -99 -71 -227 -212 -105
-116 -158 -144 -264 -143 -60 0 -89 6 -160 36 -48 19 -99 35 -113 35 -59 0
-162 -163 -232 -365 l-13 -40 6 40 c9 61 89 244 131 299 21 27 50 58 66 70
l27 20 127 -43 c111 -38 135 -43 189 -38 79 6 147 48 229 142 193 220 275 269
396 235z m164 -10 c4 -6 11 -7 17 -4 7 4 8 2 4 -4 -5 -9 -13 -9 -27 -2 -10 6
-19 13 -19 15 0 9 19 5 25 -5z m547 -22 c-35 -17 -93 -41 -130 -54 -37 -13
-59 -24 -50 -24 10 0 41 9 70 20 74 28 71 17 -4 -19 -101 -48 -254 -83 -178
-41 l35 20 -30 -6 c-53 -10 -5 13 137 65 73 27 144 53 158 59 57 24 50 8 -8
-20z m-1757 -38 c0 -22 4 -40 10 -40 5 0 4 -5 -2 -11 -18 -18 -52 -2 -46 22 4
13 1 19 -8 17 -9 -2 -15 7 -17 22 -2 18 4 28 20 36 31 14 42 2 43 -46z m1855
15 c0 -2 -21 -11 -47 -19 -27 -7 -106 -42 -176 -76 -70 -35 -130 -60 -132 -58
-3 3 46 29 107 58 180 86 248 112 248 95z m448 -2 c-10 -2 -26 -2 -35 0 -10 3
-2 5 17 5 19 0 27 -2 18 -5z m-431 -48 c-71 -38 -82 -41 -71 -24 4 7 3 10 -2
8 -5 -3 -80 -39 -168 -82 -87 -43 -160 -76 -162 -75 -1 2 22 16 52 32 40 21
51 32 42 38 -8 5 -2 6 17 2 17 -3 25 -2 18 3 -7 5 24 26 88 60 54 28 96 47 93
42 -8 -13 7 -10 36 6 14 8 30 14 35 14 6 0 -3 -7 -18 -15 -16 -9 -27 -18 -24
-20 3 -3 27 6 54 20 26 14 54 25 62 26 8 0 -16 -16 -52 -35z m122 -6 c-29 -23
-18 -24 21 -4 17 9 30 13 30 11 0 -7 -101 -71 -170 -108 -29 -17 -84 -50 -121
-73 -113 -75 -182 -105 -230 -104 l-44 2 45 6 c25 4 61 15 80 25 70 36 200
119 195 124 -2 3 -22 -6 -42 -20 -55 -36 -131 -77 -185 -98 -37 -15 -53 -17
-83 -9 -20 6 -35 12 -33 15 2 2 20 -1 39 -6 30 -9 42 -6 111 30 42 22 103 56
135 75 59 36 79 43 68 25 -3 -5 -3 -10 1 -10 11 0 153 81 159 91 10 15 -5 11
-33 -10 -32 -22 -108 -61 -119 -61 -4 0 27 21 70 46 43 26 75 49 72 52 -3 3
-11 0 -17 -6 -15 -15 -31 -16 -22 -1 8 14 7 13 -73 -29 -67 -34 -78 -38 -68
-22 3 6 2 10 -4 10 -16 0 -22 -18 -9 -23 7 -2 -16 -18 -51 -36 -34 -18 -61
-34 -58 -37 2 -3 58 25 123 61 110 60 153 79 129 56 -6 -5 -59 -35 -120 -66
-60 -32 -114 -61 -120 -66 -12 -12 -28 -11 -20 1 3 6 4 10 2 10 -13 0 -116
-51 -122 -59 -3 -6 -16 -10 -28 -10 -20 1 -21 2 -2 6 11 3 27 11 35 18 8 7 61
36 118 65 56 29 101 55 98 57 -3 3 -59 -22 -126 -56 -67 -33 -124 -61 -128
-61 -13 0 102 66 193 111 113 55 109 54 101 40 -11 -17 -1 -14 67 21 80 42 81
43 73 29 -9 -14 0 -14 26 0 16 8 19 8 13 -1 -5 -8 -3 -11 6 -8 8 3 13 10 12
16 -2 7 4 9 13 5 14 -5 13 -9 -7 -24z m309 24 c-10 -2 -28 -2 -40 0 -13 2 -5
4 17 4 22 1 32 -1 23 -4z m277 -58 c-9 -5 -38 -24 -65 -41 l-48 -32 -37 38
c-25 26 -36 44 -31 55 5 14 12 11 45 -15 36 -29 40 -30 57 -16 11 9 35 27 54
40 l35 24 4 -21 c2 -13 -4 -26 -14 -32z m-1688 34 c-21 -5 -47 -14 -59 -20
-15 -8 -19 -8 -13 1 10 16 45 29 80 28 28 0 27 -1 -8 -9z m1423 -7 c0 -4 -18
-6 -40 -4 -22 2 -40 6 -40 8 0 2 18 4 40 4 22 0 40 -3 40 -8z m-2360 -27 c33
-17 36 -26 19 -56 -10 -19 -12 -19 -50 15 -21 20 -46 36 -55 36 -23 0 -51 -17
-58 -37 -6 -16 -6 -16 12 0 26 24 32 21 33 -15 2 -32 2 -32 9 7 l7 40 2 -40 3
-40 13 30 c14 29 14 27 15 -41 0 -74 -20 -144 -42 -144 -19 0 -58 42 -58 62 0
10 -4 18 -10 18 -5 0 -10 24 -10 54 0 101 84 156 170 111z m-1133 -42 c-3 -10
-5 -2 -5 17 0 19 2 27 5 18 2 -10 2 -26 0 -35z m520 25 c-3 -8 -6 -5 -6 6 -1
11 2 17 5 13 3 -3 4 -12 1 -19z m1678 -21 c62 -61 86 -144 92 -312 6 -147 -9
-247 -57 -394 -73 -225 -161 -338 -276 -357 -183 -29 -276 319 -183 684 10 42
44 127 74 188 42 86 65 121 104 156 64 57 105 77 160 78 38 0 49 -5 86 -43z
m1295 33 c0 -13 -60 -13 -80 0 -11 7 -2 10 33 10 26 0 47 -4 47 -10z m-5 -30
c4 -6 -15 -10 -50 -10 -35 0 -54 4 -50 10 3 6 26 10 50 10 24 0 47 -4 50 -10z
m275 -10 c0 -13 -10 -24 -25 -30 -32 -12 -33 -22 -1 -14 21 5 23 3 19 -20 -4
-18 -12 -26 -27 -26 -20 0 -76 -52 -76 -71 0 -19 -19 -8 -54 31 -31 35 -47 70
-31 70 3 0 23 -16 45 -36 32 -29 40 -33 40 -18 0 9 7 26 17 36 9 11 11 18 5
18 -7 0 -17 -8 -23 -18 -11 -18 -15 -16 -50 21 -22 22 -39 43 -39 48 0 20 20
16 54 -13 34 -28 39 -30 48 -15 8 16 73 56 91 57 4 0 7 -9 7 -20z m-226 -33
c4 -19 3 -26 -4 -22 -5 3 -10 18 -10 32 0 32 5 28 14 -10z m-45 7 c2 -2 -29
-4 -70 -4 -52 0 -70 3 -59 10 13 9 118 4 129 -6z m-774 -4 c-3 -5 -12 -10 -18
-10 -7 0 -6 4 3 10 19 12 23 12 15 0z m-2728 -77 c-2 -16 -4 -3 -4 27 0 30 2
43 4 28 2 -16 2 -40 0 -55z m2683 57 c-8 -5 -19 -10 -25 -10 -5 0 -3 5 5 10 8
5 20 10 25 10 6 0 3 -5 -5 -10z m-1573 -37 c-3 -10 -5 -4 -5 12 0 17 2 24 5
18 2 -7 2 -21 0 -30z m2388 27 c4 -6 -25 -10 -80 -10 -55 0 -84 4 -80 10 3 6
39 10 80 10 41 0 77 -4 80 -10z m-2068 -6 c-3 -3 -12 -4 -19 -1 -8 3 -5 6 6 6
11 1 17 -2 13 -5z m432 -66 c-46 -90 -77 -177 -105 -292 -20 -84 -24 -126 -24
-246 0 -159 14 -239 54 -319 28 -55 77 -100 109 -102 17 -1 18 -2 4 -6 -32 -8
-86 36 -117 96 -104 208 -88 566 37 816 37 72 62 115 69 115 2 0 -10 -28 -27
-62z m1745 -74 c3 -16 2 -35 -2 -42 -15 -22 -33 12 -37 65 -1 26 -5 62 -9 78
-4 20 2 13 18 -21 13 -29 27 -65 30 -80z m-784 111 c0 -8 -61 -37 -67 -32 -3
3 8 12 24 21 29 16 43 19 43 11z m684 -5 c-6 -6 -64 -7 -164 -1 l-155 8 165 2
c108 0 161 -2 154 -9z m-3705 -14 c10 -12 8 -13 -8 -9 -30 8 -38 -23 -16 -61
83 -146 347 -283 1010 -524 411 -150 563 -192 705 -200 52 -2 101 -9 108 -14
16 -13 16 -74 0 -85 -7 -4 -47 -11 -88 -14 l-75 -7 93 2 c70 1 95 5 102 16 5
8 10 55 10 103 0 98 -7 108 -56 82 l-29 -15 28 0 c23 0 27 -4 27 -30 0 -20 -5
-30 -15 -30 -8 0 -15 6 -15 14 0 10 -26 15 -102 19 -162 9 -286 44 -674 190
-367 139 -415 158 -589 232 -157 67 -175 76 -260 132 -84 55 -135 98 -162 139
-23 36 -5 44 20 10 27 -37 197 -148 296 -193 42 -19 198 -81 346 -138 592
-227 1034 -341 1144 -295 52 21 61 4 61 -115 0 -126 -8 -137 -105 -143 -117
-8 -258 31 -672 187 -434 163 -868 357 -868 389 0 13 -23 32 -38 32 -5 0 -5
-5 -1 -11 4 -8 0 -7 -15 1 -12 6 -19 15 -16 20 3 5 -3 8 -14 7 -30 -2 -105 62
-150 128 -44 65 -49 82 -26 91 13 5 13 8 0 27 -16 22 -20 59 -8 70 11 12 40 8
52 -7z m1148 -73 c-2 -16 -4 -3 -4 27 0 30 2 43 4 28 2 -16 2 -40 0 -55z
m2503 57 c48 -7 28 -8 -80 -5 -80 3 -174 5 -210 6 -48 0 -60 3 -45 10 21 10
227 3 335 -11z m-2807 -132 c16 -26 47 -63 69 -84 l41 -37 121 6 c67 3 129 9
139 12 10 4 17 3 17 -4 0 -16 -36 -28 -126 -41 -105 -14 -154 -6 -202 35 -56
49 -102 140 -101 201 l2 49 6 -45 c4 -25 19 -66 34 -92z m-257 87 c-124 -44
-193 -75 -250 -114 -50 -34 -56 -37 -56 -18 0 30 136 101 271 141 125 37 149
30 35 -9z m1404 -33 c-40 -95 -68 -207 -87 -352 -13 -105 -14 -142 -4 -234 7
-60 10 -111 7 -114 -9 -8 -26 47 -26 84 0 20 -9 47 -22 65 -21 28 -23 41 -22
152 1 101 7 145 33 253 l32 131 57 41 c31 22 58 41 59 41 1 1 -11 -29 -27 -67z
m1480 59 l85 -8 -125 -1 c-69 0 -145 3 -170 7 -39 7 -34 9 40 9 47 0 123 -3
170 -7z m480 0 c0 -10 -75 -61 -90 -61 -27 0 -5 33 33 50 47 22 57 24 57 11z
m-550 -31 c211 -15 220 -17 105 -19 -116 -1 -335 19 -335 32 0 5 17 6 38 3 20
-3 107 -10 192 -16z m287 -12 c-3 -8 -6 -5 -6 6 -1 11 2 17 5 13 3 -3 4 -12 1
-19z m-387 -18 l55 -7 -75 -1 c-41 0 -102 6 -135 14 l-60 14 80 -6 c44 -4 105
-10 135 -14z m629 -37 c-28 -86 -38 -102 -59 -96 -14 4 -19 11 -15 22 5 13 4
14 -6 4 -7 -7 -21 -13 -31 -13 -17 0 -17 2 -3 30 18 35 118 117 123 101 2 -6
-2 -28 -9 -48z m-229 -57 c-17 -43 -39 -95 -50 -115 l-19 -38 25 -48 c13 -27
24 -56 24 -64 0 -12 41 -47 78 -67 1 0 -10 -22 -24 -49 l-27 -48 -18 34 c-10
19 -18 44 -19 57 0 13 -4 21 -8 18 -13 -8 -44 103 -38 133 6 25 6 24 -15 -6
-18 -29 -19 -35 -6 -47 23 -23 30 -92 12 -126 -26 -50 -31 -41 -27 47 3 62 2
84 -7 79 -17 -11 -14 -4 43 106 29 57 64 134 77 171 13 38 25 62 27 54 2 -8
-11 -49 -28 -91z m-559 80 c146 -31 248 -119 292 -250 21 -62 21 -90 1 -107
-15 -13 -17 -11 -12 18 2 18 2 31 -1 28 -6 -6 -66 106 -81 151 -24 73 -134
135 -273 154 -39 6 -73 13 -76 15 -10 10 87 4 150 -9z m-1969 -6 c21 -6 40
-15 43 -20 4 -6 -6 -5 -22 1 -15 6 -64 14 -108 18 l-80 8 65 2 c36 0 82 -4
102 -9z m2598 -31 c12 -22 20 -50 18 -62 -3 -19 -7 -16 -31 21 -18 28 -26 50
-22 63 9 26 12 25 35 -22z m-1895 19 c-21 -63 -58 -272 -62 -357 -4 -63 -9
-96 -13 -81 -18 70 45 450 75 450 3 0 2 -6 0 -12z m1769 -70 c-114 -278 -283
-498 -524 -678 -35 -27 -75 -54 -90 -61 -14 -7 -45 -27 -70 -44 -53 -37 -219
-125 -234 -125 -6 0 32 24 84 53 381 212 599 423 762 737 48 94 82 171 79 183
-1 5 3 6 8 3 5 -4 -1 -32 -15 -68z m-1834 -40 c-12 -51 -28 -149 -35 -218
l-13 -125 -1 90 c-1 83 17 197 48 314 23 81 23 32 1 -61z m1376 68 c66 -29
117 -75 132 -116 32 -83 -130 -200 -329 -239 -112 -22 -362 -27 -423 -8 -33
10 -11 12 155 13 164 1 207 5 274 23 100 27 218 86 256 129 62 70 45 115 -60
169 -59 29 -101 38 -261 57 -19 2 17 3 80 2 102 -2 122 -5 176 -30z m275 -33
c48 -50 69 -83 69 -106 0 -13 -15 1 -44 39 -24 33 -55 70 -70 83 -14 14 -26
28 -26 33 0 14 33 -8 71 -49z m54 14 c25 -24 45 -52 45 -62 0 -11 -3 -15 -8
-9 -5 5 -30 33 -57 62 -58 63 -44 69 20 9z m55 8 c25 -30 3 -25 -26 6 -22 24
-24 29 -8 21 11 -6 27 -18 34 -27z m25 25 c3 -5 1 -10 -4 -10 -6 0 -11 5 -11
10 0 6 2 10 4 10 3 0 8 -4 11 -10z m-198 -52 c51 -53 93 -122 93 -154 0 -10
-17 10 -37 44 -21 34 -57 85 -81 112 -57 66 -40 64 25 -2z m-1636 -79 c-12
-63 -25 -152 -30 -199 l-10 -85 4 110 c3 97 40 304 52 291 2 -2 -5 -55 -16
-117z m1274 101 c-43 -11 -195 -11 -170 0 11 5 61 8 110 8 62 0 81 -3 60 -8z
m725 -43 c0 -5 8 -7 18 -6 9 2 36 -1 60 -5 37 -7 43 -11 40 -29 -3 -23 -2 -23
-94 -15 -43 3 -92 77 -67 102 7 7 42 -32 43 -47z m-2035 -48 c-9 -41 -19 -112
-25 -159 l-9 -85 4 95 c3 82 31 237 41 227 2 -2 -3 -37 -11 -78z m1170 51
c-16 -4 -41 -8 -55 -8 l-25 0 25 8 c14 4 39 8 55 8 l30 0 -30 -8z m-2240 -38
c39 -15 136 -50 218 -77 81 -27 147 -53 147 -57 0 -12 -27 -9 -67 7 -36 15
-98 12 -88 -4 2 -5 25 -14 50 -21 46 -13 62 -24 47 -34 -9 -5 -431 159 -446
174 -15 15 -9 13 125 -36 68 -25 140 -52 161 -59 29 -11 40 -11 53 -1 15 11 1
18 -96 51 -63 20 -136 48 -164 60 -72 34 -25 31 60 -3z m2499 22 c42 -16 4
-24 -116 -24 -120 0 -154 8 -93 23 30 7 191 8 209 1z m586 -57 c0 -5 9 -6 20
-2 10 3 37 1 59 -6 36 -11 38 -14 29 -34 -10 -22 -12 -22 -46 -8 -19 8 -45 12
-58 9 -18 -5 -27 1 -44 29 -14 23 -19 42 -14 57 7 22 7 22 30 -7 13 -17 24
-34 24 -38z m-532 -4 c4 -15 -232 -18 -353 -5 l-70 7 60 6 c111 11 358 5 363
-8z m-1958 -1 c0 -4 -28 -24 -62 -44 -35 -20 -90 -59 -123 -86 -52 -44 -85
-56 -85 -32 0 5 21 26 48 48 85 71 222 142 222 114z m2446 -32 c14 -23 23 -28
41 -24 13 4 39 -1 58 -10 30 -15 34 -20 25 -37 -13 -23 -29 -24 -56 -4 -22 16
-54 20 -54 5 0 -5 6 -7 13 -4 7 2 26 -9 41 -25 24 -25 27 -33 17 -45 -24 -28
-65 5 -100 81 -30 63 -34 93 -12 93 5 0 18 -13 27 -30z m-488 -12 c-4 -10 -53
-12 -215 -9 -306 5 -326 19 -30 20 195 1 248 -2 245 -11z m171 -62 c12 -42 11
-47 -8 -72 -12 -15 -21 -21 -21 -14 0 8 -9 33 -21 57 -20 41 -20 45 -4 69 21
32 36 21 54 -40z m-209 14 c-18 -12 -464 -12 -500 0 -14 4 94 8 245 9 178 0
265 -3 255 -9z m139 -38 c5 -9 12 -34 16 -53 6 -31 3 -39 -16 -53 -27 -18 -29
-17 -54 43 l-19 43 23 19 c29 24 38 24 50 1z m-223 -7 c-16 -12 -60 -15 -225
-15 -112 0 -201 3 -198 7 12 11 135 20 292 21 134 1 148 0 131 -13z m-2803
-43 c15 -2 30 -9 33 -14 4 -6 -1 -8 -12 -5 -11 3 -34 8 -51 12 -18 4 -33 11
-33 17 0 6 7 7 18 3 9 -4 29 -10 45 -13z m2959 -37 c16 -46 16 -49 0 -61 -26
-21 -41 -16 -48 14 -4 15 -13 37 -21 49 -13 19 -12 23 9 37 31 22 40 17 60
-39z m153 -14 l-25 -26 0 23 c0 13 8 34 18 47 17 23 17 23 25 2 6 -16 1 -27
-18 -46z m-455 48 c-50 -13 -349 -14 -385 -1 -23 8 24 10 195 10 156 0 214 -3
190 -9z m-2555 -63 c34 -22 33 -40 -2 -32 -16 4 -47 9 -71 13 -31 4 -48 13
-62 33 l-19 27 64 -12 c36 -7 76 -20 90 -29z m2773 23 c4 -21 -48 -45 -59 -27
-14 21 -10 36 9 41 28 8 47 3 50 -14z m338 -32 c-21 -28 -25 -39 -17 -58 9
-23 10 -23 10 7 1 17 10 39 21 49 19 17 19 16 26 -34 7 -55 17 -61 66 -42 18
7 30 5 47 -8 23 -17 23 -19 6 -44 -9 -15 -20 -25 -24 -23 -34 21 -95 38 -136
40 -42 1 -50 4 -49 19 2 17 1 17 -17 1 -26 -23 -9 -33 57 -35 50 -2 124 -34
124 -54 0 -6 -5 -16 -12 -23 -8 -8 -21 -5 -52 12 -23 13 -63 27 -91 31 -27 4
-53 11 -56 16 -3 6 -11 4 -18 -4 -10 -12 -3 -16 44 -22 31 -3 55 -11 55 -18 0
-8 4 -7 9 2 7 11 16 7 45 -20 35 -33 36 -35 20 -57 l-16 -24 -38 37 c-29 29
-52 40 -99 50 -51 11 -62 10 -73 -2 -6 -8 -7 -13 -2 -12 19 5 134 -13 134 -22
0 -4 13 -24 30 -42 30 -34 30 -34 10 -52 -20 -18 -21 -18 -34 1 -42 57 -45 60
-46 41 0 -11 9 -32 21 -48 21 -29 21 -31 3 -50 l-19 -21 -23 28 c-21 24 -23
35 -19 76 6 47 5 48 -21 48 -15 0 -37 7 -48 15 -12 8 -25 11 -30 7 -5 -4 23
27 61 68 39 41 92 105 119 142 27 37 52 66 54 64 2 -3 -8 -20 -22 -39z m-413
13 c6 -24 1 -28 -49 -36 -114 -19 -287 -24 -404 -12 -30 3 -61 6 -67 7 -7 1
-13 5 -13 11 0 6 55 8 148 6 91 -2 176 2 222 10 57 10 76 10 82 1 6 -9 8 -9 8
1 0 12 32 30 56 31 7 1 14 -8 17 -19z m268 -38 c-5 -10 -17 -24 -25 -31 -12
-10 -16 -8 -21 9 -9 29 34 79 47 55 5 -8 5 -23 -1 -33z m-2881 -7 c0 -11 3
-31 7 -44 5 -21 4 -23 -13 -16 -10 4 -48 11 -83 15 -42 5 -70 14 -83 27 -19
20 -19 20 66 8 56 -7 83 -8 76 -1 -16 16 -11 32 10 32 13 0 20 -7 20 -21z
m2701 3 c10 -18 8 -24 -7 -35 -24 -18 -36 -12 -45 20 -11 40 32 52 52 15z
m-73 -32 c10 -22 8 -25 -19 -35 -27 -9 -31 -8 -39 15 -13 33 -13 32 8 37 33 9
39 7 50 -17z m176 -27 c-15 -17 -44 -27 -44 -15 0 2 -3 11 -6 19 -4 10 4 21
23 30 25 14 29 14 36 0 6 -9 3 -21 -9 -34z m-2735 17 c7 -8 11 -38 10 -69 l-2
-54 -79 2 c-53 1 -84 7 -94 16 -12 13 -8 16 33 28 36 11 53 12 76 3 38 -14 40
-12 27 22 -21 55 -2 89 29 52z m2082 -22 c16 -33 16 -35 -4 -49 -30 -21 -32
-20 -46 26 -10 34 -10 43 1 50 23 15 32 9 49 -27z m399 17 c15 -28 13 -31 -20
-31 -19 0 -33 7 -40 19 -15 28 -13 31 20 31 19 0 33 -7 40 -19z m-332 3 c29
-8 28 -18 -3 -32 -33 -15 -32 -16 -37 13 -5 26 1 29 40 19z m185 -23 c5 -23
15 -32 52 -46 55 -21 60 -28 39 -49 -22 -23 -44 -20 -45 7 l0 22 -9 -22 c-11
-27 -27 -29 -59 -6 -14 9 -21 11 -17 5 5 -9 -6 -12 -38 -12 -25 0 -46 4 -46 9
0 19 27 29 79 30 29 0 56 2 59 5 3 3 -6 6 -19 6 -31 0 -55 18 -63 47 -5 16 -2
23 11 26 41 11 51 7 56 -22z m77 -1 c19 -20 38 -30 58 -30 49 0 60 -55 12 -62
-23 -4 -30 0 -32 16 -2 12 -16 27 -33 34 -53 23 -60 29 -63 51 -5 31 25 27 58
-9z m-162 -5 c16 -34 16 -35 -13 -35 -23 0 -45 24 -45 49 0 23 47 11 58 -14z
m422 -11 c0 -6 -12 -17 -26 -24 -22 -12 -27 -12 -34 0 -16 25 -11 36 18 46 27
10 41 3 42 -22z m-2815 -15 c7 -7 -1 -9 -24 -7 -19 2 -37 9 -39 17 -4 11 2 12
24 7 16 -4 34 -12 39 -17z m202 -55 l3 -69 -20 24 c-28 33 -25 128 4 118 6 -2
12 -32 13 -73z m2536 47 c4 -15 -2 -22 -26 -30 -34 -12 -32 -13 -41 15 -5 16
0 22 21 30 33 13 39 11 46 -15z m-413 10 c0 -5 7 -16 15 -25 14 -13 14 -16 -2
-25 -24 -12 -73 -2 -80 17 -4 8 2 21 12 28 21 16 55 19 55 5z m516 -30 c-4 -5
-20 -20 -36 -31 -24 -17 -30 -18 -30 -7 0 9 15 24 33 35 33 20 44 21 33 3z
m-2528 -149 l3 -69 -26 5 c-14 2 -46 -3 -71 -13 -37 -14 -47 -15 -60 -4 -13
11 -10 15 28 30 24 10 53 18 65 18 20 1 21 4 16 59 -7 73 -13 80 -13 15 l0
-50 -47 -12 c-63 -17 -87 -18 -91 -6 -2 6 22 19 55 30 l58 20 -3 65 -3 65 43
-42 c42 -41 43 -45 46 -111z m1840 140 c13 -9 6 -42 -9 -42 -8 0 -29 32 -29
44 0 9 23 7 38 -2z m118 -22 c18 0 18 -9 -3 -32 -19 -21 -33 -22 -68 -6 -33
15 -32 34 3 50 22 11 29 11 40 1 7 -7 20 -13 28 -13z m480 -11 c8 -14 -5 -26
-38 -34 -22 -6 -28 -4 -28 9 0 9 10 21 23 26 30 12 35 12 43 -1z m-402 -7 c7
-12 -22 -52 -37 -52 -7 0 -19 5 -27 10 -13 9 -12 13 9 30 25 21 46 26 55 12z
m-2174 -32 c36 -25 38 -40 8 -40 -13 -1 -41 -7 -63 -15 -35 -12 -42 -12 -54 0
-13 13 -11 16 17 26 33 11 43 29 18 29 -8 0 -26 -4 -40 -10 -14 -5 -26 -8 -26
-6 0 3 -3 11 -6 19 -12 33 98 31 146 -3z m2490 10 c0 -13 -13 -21 -46 -29 -51
-13 -71 -7 -52 16 27 33 98 42 98 13z m-2161 -16 c12 -12 -48 -2 -65 11 -17
13 -15 13 21 4 22 -6 42 -13 44 -15z m1626 -1 c41 -15 68 -33 48 -33 -16 0
-123 49 -123 56 0 3 8 3 18 -1 9 -4 35 -14 57 -22z m345 2 c-19 -20 -33 -25
-72 -25 -33 0 -48 4 -48 13 0 26 25 37 84 37 l59 0 -23 -25z m74 0 c-15 -22
-64 -37 -64 -18 0 16 35 43 57 43 23 0 23 -1 7 -25z m-1994 -30 l45 -14 -60 6
c-33 3 -64 9 -69 14 -15 14 34 10 84 -6z m1749 -11 c71 -7 97 -18 104 -43 4
-16 0 -21 -14 -21 -11 0 -22 6 -25 14 -5 14 -74 36 -127 41 -16 2 -34 8 -40
15 -10 10 -6 11 18 6 17 -3 54 -9 84 -12z m-194 -4 c3 -6 -1 -7 -9 -4 -18 7
-21 14 -7 14 6 0 13 -4 16 -10z m-1479 -9 c-26 -5 -22 -8 32 -20 35 -7 61 -15
59 -17 -6 -6 -200 27 -209 35 -4 3 28 6 70 7 42 0 64 -2 48 -5z m1559 -15 c17
-2 40 -5 53 -5 22 -1 33 -21 11 -21 -27 0 -119 32 -119 42 0 7 4 7 13 0 7 -6
26 -13 42 -16z m431 9 c-22 -17 -56 -20 -56 -6 0 10 23 18 55 20 20 0 20 0 1
-14z m334 -4 c0 -22 -52 -69 -58 -52 -4 13 36 71 49 71 5 0 9 -9 9 -19z
m-2253 3 c-3 -3 -12 -4 -19 -1 -8 3 -5 6 6 6 11 1 17 -2 13 -5z m1791 -15 c5
-25 -56 -32 -69 -8 -14 28 -12 30 28 27 25 -2 39 -8 41 -19z m50 4 c6 -19 -25
-16 -32 3 -4 11 -1 14 11 12 9 -2 18 -9 21 -15z m315 -66 c10 -40 27 -85 38
-100 20 -27 20 -29 3 -48 -9 -10 -20 -19 -24 -19 -4 0 -19 24 -33 53 l-26 52
-1 -36 c0 -19 7 -44 15 -55 20 -26 19 -41 -5 -54 -19 -10 -23 -6 -41 35 -11
25 -17 54 -14 65 5 17 -2 22 -55 37 l-61 17 28 23 c15 13 2 7 -29 -13 -32 -20
-58 -39 -58 -42 0 -2 12 3 26 13 16 10 29 13 33 8 3 -6 26 -16 50 -24 43 -14
45 -15 47 -57 1 -23 9 -54 18 -67 15 -23 14 -25 -6 -39 -20 -14 -22 -13 -33 7
-24 47 -33 83 -23 100 6 12 5 18 -4 21 -7 2 -37 10 -65 19 l-53 15 -97 -54
c-54 -30 -94 -54 -90 -54 4 0 22 7 38 16 42 21 52 14 26 -18 -18 -22 -27 -26
-47 -20 -40 11 -34 30 18 56 26 13 97 56 157 95 61 39 116 69 123 66 7 -3 11
-1 7 4 -3 5 14 24 37 42 l43 33 -35 -39 c-19 -22 -26 -32 -14 -22 26 21 31 21
37 0 3 -12 5 -8 6 9 0 15 6 30 11 33 6 4 8 10 5 15 -3 4 3 6 12 4 13 -4 23
-27 36 -77z m-2440 52 c18 -13 33 -43 48 -92 12 -40 22 -77 23 -83 1 -11 -88
-84 -103 -84 -5 0 -13 6 -19 13 -8 10 1 21 39 47 64 44 46 52 -25 11 -52 -29
-54 -29 -71 -11 -16 18 -15 20 34 44 28 14 57 26 66 26 29 0 28 31 -3 91 -33
63 -30 71 11 38z m1567 11 c0 -5 -7 -10 -15 -10 -8 0 -15 5 -15 10 0 6 7 10
15 10 8 0 15 -4 15 -10z m-1606 -37 c30 -47 41 -83 26 -83 -6 0 -41 -12 -77
-26 l-65 -26 -21 20 -20 21 39 16 c21 9 52 19 67 22 30 6 29 4 11 71 -10 35
13 26 40 -15z m296 12 c52 -8 115 -15 140 -15 40 -1 42 -2 20 -11 -26 -11
-250 15 -280 32 -23 13 9 11 120 -6z m1665 5 c4 -6 -7 -10 -24 -10 -17 0 -31
5 -31 10 0 6 11 10 24 10 14 0 28 -4 31 -10z m-305 -20 c0 -5 -25 -10 -55 -10
-30 0 -55 5 -55 10 0 6 25 10 55 10 30 0 55 -4 55 -10z m-1513 -52 c6 -7 16
-38 24 -68 9 -38 14 -48 17 -32 2 13 -1 37 -7 53 l-10 30 28 -17 c24 -14 30
-26 35 -70 3 -29 9 -59 12 -67 4 -10 -5 -16 -30 -21 -23 -5 -44 -17 -58 -36
-23 -31 -42 -38 -53 -19 -9 14 32 58 70 75 25 11 27 14 12 19 -13 5 -32 -4
-66 -34 -43 -35 -51 -39 -62 -25 -10 12 -7 21 21 49 19 19 42 35 51 35 16 0
16 6 -7 72 -13 39 -24 75 -24 80 0 11 33 -6 47 -24z m323 3 c47 -18 114 -29
270 -44 19 -2 4 -5 -35 -6 -75 -3 -70 -7 45 -31 44 -9 44 -9 -15 -6 -33 2
-112 19 -175 36 -71 20 -146 34 -194 37 -44 2 -82 6 -85 9 -3 3 12 5 34 4 58
-3 122 1 109 6 -6 3 -47 9 -90 14 l-79 9 80 -4 c50 -2 101 -11 135 -24z m90 9
c36 -10 56 -19 45 -19 -11 0 -49 8 -85 19 -36 10 -56 19 -45 19 11 0 49 -8 85
-19z m2008 -20 c31 -38 32 -41 16 -57 -16 -16 -19 -15 -50 22 -36 41 -42 60
-21 68 20 9 21 8 55 -33z m-798 20 c15 -5 -31 -8 -117 -9 -89 -1 -143 3 -143
9 0 12 223 12 260 0z m225 -30 c62 0 85 -3 75 -10 -9 -6 -62 -8 -130 -4 -63 3
-173 2 -245 -3 -108 -8 -265 -3 -230 7 24 6 316 17 375 14 36 -2 106 -4 155
-4z m-1471 -39 c61 -16 172 -44 246 -63 l135 -33 437 0 c240 0 439 -3 442 -6
9 -8 -301 -19 -544 -19 -259 1 -360 11 -535 54 -169 41 -338 87 -344 92 -13
12 67 0 163 -25z m1421 0 c49 -5 63 -9 45 -13 -40 -11 -643 -17 -665 -8 -14 6
5 9 60 10 44 1 139 6 210 9 169 10 264 10 350 2z m370 -78 c3 -13 3 -28 0 -33
-3 -5 1 -26 10 -46 11 -28 12 -40 4 -50 -19 -23 -39 -16 -55 21 -19 47 -18 71
6 88 20 14 19 15 -19 21 -22 3 -52 11 -68 17 -26 10 -27 12 -10 23 28 21 124
-9 132 -41z m-1784 31 c24 -8 82 -24 129 -35 l85 -19 -65 5 c-36 2 -93 15
-129 29 -89 36 -104 50 -20 20z m1303 -1 c161 -13 40 -21 -338 -20 -215 0
-382 1 -371 4 70 14 594 26 709 16z m-946 -20 c-10 -2 -26 -2 -35 0 -10 3 -2
5 17 5 19 0 27 -2 18 -5z m-494 -81 l46 -78 -48 -51 c-32 -34 -53 -49 -61 -43
-17 10 -4 34 38 74 l30 29 -23 31 c-13 17 -33 50 -45 74 -21 41 -21 42 -2 42
13 0 33 -24 65 -78z m-83 26 c20 -29 26 -44 18 -47 -14 -4 -69 56 -69 76 0 25
20 13 51 -29z m1624 32 c-3 -5 -12 -10 -18 -10 -7 0 -6 4 3 10 19 12 23 12 15
0z m-1513 -17 c8 -10 32 -49 52 -86 l38 -69 -34 -31 c-19 -18 -39 -40 -45 -51
-8 -15 -14 -16 -32 -7 -26 14 -18 33 34 85 l34 34 -39 62 c-22 33 -40 65 -40
70 0 15 15 12 32 -7z m1473 -3 c-3 -5 -12 -10 -18 -10 -7 0 -6 4 3 10 19 12
23 12 15 0z m335 1 c0 -6 -13 -17 -29 -27 l-28 -17 27 -56 28 -56 -22 -12
c-27 -15 -31 -12 -50 44 -11 31 -13 50 -6 57 5 5 10 18 10 27 0 17 36 48 58
48 6 1 12 -3 12 -8z m-1685 -98 l54 -82 -34 -11 c-21 -7 -42 -25 -55 -46 -12
-19 -28 -34 -35 -34 -30 0 -25 24 15 71 l41 49 -22 38 c-12 20 -31 52 -42 70
l-20 34 23 -4 c15 -2 39 -29 75 -85z m834 72 c253 0 278 -1 230 -13 -70 -17
-603 -8 -769 12 l-115 14 185 -6 c102 -4 313 -7 469 -7z m637 -5 c16 -5 48
-14 72 -20 40 -10 42 -12 42 -50 0 -21 5 -51 12 -65 12 -26 5 -41 -21 -47 -10
-2 -19 17 -30 61 -16 61 -19 65 -51 74 -119 29 -116 28 -95 43 22 17 32 17 71
4z m-236 -10 c-20 -13 -33 -13 -25 0 3 6 14 10 23 10 15 0 15 -2 2 -10z m203
-40 c23 -6 50 -13 60 -16 12 -4 17 -16 17 -39 0 -19 5 -46 10 -61 12 -29 7
-38 -26 -48 -19 -6 -21 0 -30 55 l-9 62 -67 24 c-38 14 -68 29 -68 33 0 4 10
11 22 17 16 7 26 6 36 -3 7 -8 32 -18 55 -24z m-1685 18 c9 -9 4 -20 -25 -50
-40 -41 -60 -47 -70 -22 -3 9 7 28 28 50 35 37 48 41 67 22z m283 2 c13 -7 19
-21 19 -43 l-1 -32 -29 35 c-42 48 -37 65 11 40z m599 -7 c241 -7 280 -20 64
-22 -114 -1 -341 22 -353 35 -3 4 8 4 24 0 17 -3 136 -9 265 -13z m665 -2 c-7
-12 21 -28 90 -52 l50 -17 7 -59 c5 -47 4 -60 -10 -70 -26 -21 -30 -16 -37 46
l-7 60 -48 17 c-27 10 -61 28 -75 40 l-26 22 28 10 c15 6 29 11 31 11 2 1 1
-3 -3 -8z m-1480 -21 c4 -6 -14 -30 -38 -55 -37 -37 -47 -42 -56 -31 -10 11
-4 23 27 55 39 42 56 49 67 31z m1357 -41 c-5 -36 -24 -46 -59 -30 l-26 12 44
23 c24 13 44 24 45 25 0 0 -1 -13 -4 -30z m-978 -66 l58 -62 -23 -48 c-28 -60
-24 -56 -48 -48 -27 8 -26 17 4 65 14 22 21 40 15 40 -16 0 -49 -38 -56 -65
-6 -26 -19 -31 -42 -16 -10 6 -5 19 23 55 l36 47 -20 27 c-10 15 -28 36 -40
46 -12 11 -21 23 -21 27 0 13 34 16 46 5 6 -6 37 -39 68 -73z m17 55 c35 -52
91 -108 102 -101 5 3 -15 29 -44 59 -29 29 -50 56 -47 60 4 3 20 3 37 -1 20
-4 32 -15 39 -33 5 -15 26 -47 46 -70 38 -47 42 -65 25 -124 -8 -31 -15 -38
-34 -38 -29 0 -30 8 -10 57 8 20 13 38 11 41 -10 10 -26 -11 -37 -48 -12 -40
-23 -47 -48 -31 -11 7 -11 15 -1 47 7 22 20 47 28 57 9 10 12 17 6 15 -11 -3
-105 84 -129 120 -15 21 -14 22 9 22 17 0 32 -11 47 -32z m472 5 c-7 -2 -19
-2 -25 0 -7 3 -2 5 12 5 14 0 19 -2 13 -5z m65 0 c-10 -2 -26 -2 -35 0 -10 3
-2 5 17 5 19 0 27 -2 18 -5z m-394 -9 c9 -3 16 -14 16 -24 0 -10 19 -35 42
-54 23 -20 38 -39 35 -43 -15 -14 -62 14 -94 55 -44 58 -44 83 1 66z m706 -3
c0 -4 27 -18 61 -30 40 -15 63 -30 69 -44 5 -12 9 -16 9 -9 1 6 10 12 21 12
14 0 22 -11 29 -37 17 -58 14 -83 -8 -83 -15 0 -21 10 -26 40 -9 56 -25 50
-25 -10 0 -36 -4 -50 -14 -50 -9 0 -16 19 -21 64 l-6 64 -47 17 c-26 10 -62
26 -79 36 -18 10 -33 15 -33 10 0 -15 26 -31 81 -50 l54 -18 5 -66 c4 -50 2
-68 -8 -72 -33 -12 -40 -4 -46 58 l-7 64 -60 29 c-84 40 -89 49 -37 67 50 17
88 21 88 8z m238 -23 c-6 -17 -55 -44 -64 -35 -11 11 26 47 48 47 11 0 18 -5
16 -12z m-767 -55 c47 -46 56 -60 50 -77 -5 -12 -11 -42 -15 -68 -4 -27 -9
-48 -11 -48 -35 0 -46 44 -21 91 13 26 12 29 -35 75 -46 45 -63 84 -37 84 6 0
37 -25 69 -57z m28 31 c11 -14 41 -41 66 -61 38 -28 45 -38 39 -56 -4 -12 -10
-40 -13 -62 -5 -35 -10 -40 -33 -43 -26 -3 -28 0 -28 30 0 18 5 50 11 72 11
39 11 39 -40 83 -28 25 -51 49 -51 54 0 18 29 8 49 -17z m154 -1 c12 -11 46
-35 75 -53 57 -36 62 -45 32 -55 -17 -5 -20 -15 -20 -61 0 -48 -2 -54 -21 -54
-19 0 -21 5 -18 71 l4 70 -55 35 c-75 47 -86 43 -18 -7 51 -38 56 -44 47 -66
-5 -13 -9 -42 -9 -64 0 -37 -2 -39 -30 -39 l-31 0 7 53 c4 28 11 57 16 63 6 8
-13 29 -57 63 -36 28 -65 55 -65 59 0 4 27 6 61 6 44 -1 66 -7 82 -21z m659
-18 c1 -25 2 -52 2 -61 1 -9 -9 -20 -20 -25 -20 -7 -23 -3 -31 42 -8 38 -7 53
4 69 25 35 43 25 45 -25z m-574 23 c-7 -21 -36 -34 -49 -21 -6 6 -8 16 -5 22
10 15 59 14 54 -1z m200 -45 l52 -27 0 -64 c0 -63 0 -63 -27 -60 -27 3 -28 6
-31 60 -3 57 -3 58 -50 85 -26 14 -49 28 -51 29 -2 2 -1 11 3 20 6 15 8 15 29
0 12 -8 46 -28 75 -43z m-870 25 c9 -9 3 -20 -23 -50 -19 -21 -35 -43 -35 -49
0 -6 -9 -8 -22 -3 -32 9 -32 10 -19 43 25 60 71 87 99 59z m812 -53 c28 -15
30 -19 30 -75 0 -33 -4 -60 -10 -60 -5 0 -10 20 -10 45 0 35 -3 43 -15 39 -10
-4 -15 -20 -15 -50 0 -38 -3 -44 -21 -44 -20 0 -21 4 -17 66 4 61 2 67 -19 77
-25 11 -30 23 -10 30 13 5 41 -4 87 -28z m-434 -47 c-4 -13 -10 -40 -13 -60
-5 -32 -9 -38 -31 -38 -24 0 -24 2 -18 46 7 54 20 74 48 74 16 0 19 -4 14 -22z"/>
<path d="M3223 3375 c0 -22 2 -30 4 -17 2 12 2 30 0 40 -3 9 -5 -1 -4 -23z"/>
<path d="M1610 3350 c0 -11 5 -20 10 -20 6 0 10 9 10 20 0 11 -4 20 -10 20 -5
0 -10 -9 -10 -20z"/>
<path d="M3241 3176 c-10 -12 -8 -13 8 -9 12 3 18 9 15 14 -7 12 -10 11 -23
-5z"/>
<path d="M3242 3118 c6 -18 28 -21 28 -4 0 9 -7 16 -16 16 -9 0 -14 -5 -12
-12z"/>
<path d="M2623 3173 c9 -2 25 -2 35 0 9 3 1 5 -18 5 -19 0 -27 -2 -17 -5z"/>
<path d="M1620 3122 c0 -10 41 -24 49 -17 6 7 0 11 -26 19 -13 4 -23 3 -23 -2z"/>
<path d="M1372 3035 l-33 -14 2 -475 2 -475 63 -51 64 -51 0 541 0 540 -32 0
c-18 -1 -48 -7 -66 -15z m-5 -152 c-2 -27 -3 -5 -3 47 0 52 1 74 3 48 2 -27 2
-69 0 -95z m72 -355 c-1 -271 -3 -484 -6 -473 -7 39 -8 965 0 965 4 0 6 -222
6 -492z m-42 -251 c-1 -128 -2 -20 -2 238 0 259 1 363 2 232 2 -131 2 -343 0
-470z m-40 1 c-2 -35 -3 -9 -3 57 0 66 1 94 3 63 2 -32 2 -86 0 -120z"/>
<path d="M1069 2974 c-11 -14 -10 -15 7 -12 15 2 20 -4 23 -27 5 -29 5 -28 11
10 7 37 7 35 10 -25 l3 -65 6 60 6 60 9 -90 c7 -70 11 -83 17 -60 l7 30 3 -35
c2 -25 4 -16 9 30 l7 65 3 -85 c3 -75 4 -80 10 -40 6 38 7 40 8 13 2 -38 19
-52 25 -21 3 14 5 8 6 -16 2 -71 -54 -128 -117 -118 -30 5 -74 64 -69 94 2 12
2 16 -1 8 -3 -9 -10 0 -19 25 l-13 40 6 -50 c6 -61 28 -94 77 -118 36 -18 38
-18 74 0 60 29 78 63 77 142 -1 77 -31 143 -83 180 -35 25 -83 27 -102 5z m88
-76 c-3 -8 -6 -5 -6 6 -1 11 2 17 5 13 3 -3 4 -12 1 -19z"/>
<path d="M3842 2700 c0 -14 2 -19 5 -12 2 6 2 18 0 25 -3 6 -5 1 -5 -13z"/>
<path d="M1770 2890 c-23 -19 -23 -20 -3 -11 16 8 24 8 29 0 5 -8 9 -8 14 1 4
6 11 -21 16 -62 l8 -73 6 75 6 75 4 -90 4 -90 6 80 6 80 2 -84 c2 -100 15 -99
23 2 5 65 6 60 9 -53 3 -110 4 -117 10 -60 l7 65 3 -60 3 -60 7 55 c7 54 7 55
8 11 2 -33 5 -42 16 -38 20 8 26 -40 9 -74 -13 -28 -56 -61 -85 -66 -10 -2
-21 -4 -25 -5 -38 -10 -111 40 -96 65 4 6 1 7 -7 2 -10 -6 -12 -4 -7 9 4 10 3
15 -3 11 -5 -3 -16 16 -24 42 -14 45 -15 46 -15 15 -1 -18 6 -47 15 -65 9 -18
11 -27 4 -20 -7 6 -21 35 -31 65 -14 38 -17 43 -13 18 9 -54 36 -92 87 -124
114 -70 223 -6 226 133 2 103 -32 177 -102 220 -54 33 -89 36 -117 11z m187
-202 c-3 -7 -5 -2 -5 12 0 14 2 19 5 13 2 -7 2 -19 0 -25z"/>
<path d="M1955 2836 c10 -14 19 -26 22 -26 7 0 -17 39 -28 46 -6 3 -3 -5 6
-20z"/>
<path d="M1980 2795 c0 -5 5 -17 10 -25 5 -8 10 -10 10 -5 0 6 -5 17 -10 25
-5 8 -10 11 -10 5z"/>
<path d="M1721 2664 c0 -11 3 -14 6 -6 3 7 2 16 -1 19 -3 4 -6 -2 -5 -13z"/>
<path d="M1731 2624 c0 -11 3 -14 6 -6 3 7 2 16 -1 19 -3 4 -6 -2 -5 -13z"/>
<path d="M730 2520 c0 -9 39 -25 45 -18 2 2 -7 8 -21 15 -13 6 -24 7 -24 3z"/>
<path d="M2157 2173 c-13 -12 -7 -23 11 -22 10 0 12 3 4 6 -6 2 -10 9 -6 14 6
10 0 12 -9 2z"/>
<path d="M3202 2405 c-14 -30 -16 -139 -3 -115 8 15 24 140 17 140 -1 0 -8
-11 -14 -25z"/>
<path d="M1117 2169 c7 -7 15 -10 18 -7 3 3 -2 9 -12 12 -14 6 -15 5 -6 -5z"/>
<path d="M1170 2170 c-9 -6 -10 -10 -3 -10 6 0 15 5 18 10 8 12 4 12 -15 0z"/>
<path d="M1875 2327 c-4 -10 -5 -21 -1 -24 10 -10 18 4 13 24 -4 17 -4 17 -12
0z"/>
<path d="M3575 2234 c-44 -24 -74 -43 -67 -44 11 0 148 73 161 86 13 12 -23
-4 -94 -42z"/>
<path d="M1731 2194 c0 -11 3 -14 6 -6 3 7 2 16 -1 19 -3 4 -6 -2 -5 -13z"/>
<path d="M2798 2142 c-40 -5 -117 -80 -163 -158 -22 -37 -40 -71 -41 -74 0 -3
-5 -16 -11 -30 -28 -65 -35 -87 -35 -117 0 -18 -4 -33 -8 -33 -4 0 -6 -9 -3
-20 3 -11 2 -28 -1 -37 -9 -22 -13 -223 -5 -223 3 0 4 -11 1 -25 -3 -16 0 -25
8 -25 8 0 10 -8 7 -23 -4 -12 -2 -29 4 -37 8 -11 9 -9 3 10 -5 19 0 15 21 -15
15 -22 34 -46 43 -52 40 -32 113 -3 169 65 12 15 22 22 23 16 0 -7 -18 -30
-41 -53 -68 -68 -146 -75 -185 -16 -9 14 -19 23 -22 20 -3 -3 7 -19 23 -35 37
-38 82 -47 129 -25 50 24 108 93 100 118 -4 12 -2 17 4 13 12 -7 24 22 15 37
-4 7 2 5 12 -3 10 -8 16 -10 12 -3 -10 15 13 64 26 56 6 -4 8 0 4 10 -3 9 -3
17 1 19 4 2 18 37 32 78 20 62 25 100 28 219 5 167 -11 245 -58 303 -31 38
-49 45 -92 40z m78 -48 c19 -19 34 -40 34 -46 0 -6 -10 2 -22 17 -12 15 -35
36 -52 46 -23 14 -26 19 -12 19 10 0 34 -16 52 -36z m-56 -14 c8 -5 11 -10 5
-10 -5 0 -17 5 -25 10 -8 5 -10 10 -5 10 6 0 17 -5 25 -10z m7 -62 c34 -38 38
-55 6 -25 -43 40 -83 37 -137 -13 -23 -22 -51 -58 -61 -80 -22 -49 -32 -46
-11 4 48 114 150 172 203 114z m-76 -45 c13 -16 12 -17 -3 -4 -10 7 -18 15
-18 17 0 8 8 3 21 -13z m58 -49 c4 3 8 -11 8 -32 0 -20 -2 -28 -4 -17 -3 11
-14 31 -24 44 -11 13 -19 29 -19 35 0 6 7 0 16 -12 8 -12 19 -20 23 -18z m-76
11 c-3 -9 -8 -14 -10 -11 -3 3 -2 9 2 15 9 16 15 13 8 -4z m-1 -49 c4 -6 14
-4 25 5 17 13 17 13 4 -4 -13 -16 -13 -20 -1 -27 8 -5 17 -7 21 -4 4 2 10 0
13 -5 8 -12 -34 -42 -47 -34 -6 4 -8 -4 -4 -18 6 -23 4 -25 -27 -21 -20 2 -37
-1 -41 -9 -6 -8 -4 -10 6 -4 12 8 12 6 0 -8 -11 -14 -11 -17 0 -18 8 0 5 -4
-6 -9 -19 -8 -19 -9 2 -9 12 -1 25 4 28 9 3 6 12 10 18 10 8 0 7 -3 -2 -9 -7
-5 -10 -14 -6 -20 4 -7 -9 -29 -29 -51 -20 -22 -36 -34 -36 -28 0 7 -12 0 -25
-15 -33 -37 -32 -24 0 15 14 16 25 24 25 16 0 -7 11 -1 26 14 29 28 25 50 -9
47 -42 -3 -67 1 -67 11 0 6 10 8 24 4 35 -9 44 27 16 66 -22 32 -17 43 6 13
12 -16 15 -16 24 -3 5 8 10 10 10 4 0 -6 11 -11 25 -11 31 0 34 27 3 28 -19 1
-20 2 -5 6 13 3 17 11 14 24 -3 10 -1 17 4 13 5 -3 9 -11 9 -17 0 -7 10 -13
23 -14 19 -1 17 3 -18 33 -22 20 -33 34 -25 32 8 -2 18 -7 22 -12z m-133 -90
c-6 -26 -13 -45 -16 -43 -2 3 1 26 8 51 6 26 13 45 16 43 2 -3 -1 -26 -8 -51z
m256 45 c3 -5 -3 -12 -12 -14 -14 -4 -13 -5 5 -6 29 -1 28 -18 -3 -43 -30 -23
-58 -110 -53 -165 3 -32 7 -38 26 -37 20 1 21 -1 6 -17 -8 -9 -30 -19 -49 -21
l-33 -4 0 81 c0 87 13 159 28 150 6 -3 7 0 4 8 -3 8 7 28 21 46 27 31 49 39
60 22z m-212 -86 c-3 -9 -8 -14 -10 -11 -3 3 -2 9 2 15 9 16 15 13 8 -4z m87
5 c0 -5 -7 -10 -15 -10 -8 0 -15 5 -15 10 0 6 7 10 15 10 8 0 15 -4 15 -10z
m138 -59 c2 -32 -1 -51 -7 -47 -5 4 -7 -3 -3 -16 3 -13 1 -19 -5 -15 -6 4 -14
-1 -17 -10 -6 -15 -8 -15 -16 -3 -14 22 -13 73 1 64 8 -4 9 0 4 15 -5 15 -2
21 9 21 9 0 16 5 16 11 0 5 -4 7 -10 4 -12 -7 -12 -3 -4 20 12 31 29 8 32 -44z
m-291 17 c-3 -8 -6 -5 -6 6 -1 11 2 17 5 13 3 -3 4 -12 1 -19z m143 -82 c0 -2
-7 -9 -15 -16 -13 -11 -14 -10 -9 4 5 14 24 23 24 12z m-42 -43 c-10 -2 -26
-2 -35 0 -10 3 -2 5 17 5 19 0 27 -2 18 -5z m-28 -86 c0 -23 -7 -36 -22 -46
-22 -13 -23 -13 -5 6 9 11 17 32 17 46 0 15 2 27 5 27 3 0 5 -15 5 -33z m-20
20 c0 -2 -10 -12 -22 -23 l-23 -19 19 23 c18 21 26 27 26 19z m60 -31 c0 -2
-8 -10 -17 -17 -16 -13 -17 -12 -4 4 13 16 21 21 21 13z m43 -88 c-34 -34 -79
-42 -107 -18 -24 19 -19 32 6 19 18 -10 24 -8 36 7 13 17 14 17 9 2 -9 -25 21
-23 53 2 37 29 39 24 3 -12z m-18 -67 c-6 -5 -23 -12 -40 -15 -28 -6 -28 -5 5
8 43 18 46 18 35 7z"/>
<path d="M2761 1734 c0 -11 3 -14 6 -6 3 7 2 16 -1 19 -3 4 -6 -2 -5 -13z"/>
<path d="M2752 1680 c0 -19 2 -27 5 -17 2 9 2 25 0 35 -3 9 -5 1 -5 -18z"/>
<path d="M2772 1655 c0 -16 2 -22 5 -12 2 9 2 23 0 30 -3 6 -5 -1 -5 -18z"/>
<path d="M2771 1594 c0 -11 3 -14 6 -6 3 7 2 16 -1 19 -3 4 -6 -2 -5 -13z"/>
<path d="M2912 2101 c12 -22 24 -38 26 -36 5 4 -37 75 -44 75 -3 0 6 -18 18
-39z"/>
<path d="M2952 2000 c0 -14 2 -19 5 -12 2 6 2 18 0 25 -3 6 -5 1 -5 -13z"/>
<path d="M2964 1845 c0 -71 1 -99 3 -62 2 37 2 96 0 130 -2 34 -3 4 -3 -68z"/>
<path d="M2513 1560 c0 -30 2 -43 4 -27 2 15 2 39 0 55 -2 15 -4 2 -4 -28z"/>
<path d="M2774 1278 l-19 -23 23 19 c21 18 27 26 19 26 -2 0 -12 -10 -23 -22z"/>
<path d="M470 1969 c0 -19 101 -117 160 -156 212 -141 1088 -494 1435 -579
109 -26 230 -32 237 -12 10 28 -4 33 -78 30 -46 -2 -105 3 -150 13 -111 25
-465 144 -664 224 -96 39 -178 71 -183 71 -14 0 -241 98 -372 160 -157 75
-249 134 -327 207 -32 31 -58 50 -58 42z"/>
<path d="M554 1846 c27 -26 58 -51 70 -57 12 -6 8 0 -9 13 -16 13 -48 38 -70
57 -26 22 -23 17 9 -13z"/>
<path d="M758 1710 c51 -32 244 -127 272 -134 14 -4 -47 29 -135 73 -163 82
-196 97 -137 61z"/>
<path d="M1155 1526 c101 -48 406 -168 411 -163 3 3 -39 22 -93 42 -54 21
-160 64 -235 96 -148 64 -197 78 -83 25z"/>
<path d="M1998 1383 c6 -2 18 -2 25 0 6 3 1 5 -13 5 -14 0 -19 -2 -12 -5z"/>
<path d="M2053 1373 c9 -2 23 -2 30 0 6 3 -1 5 -18 5 -16 0 -22 -2 -12 -5z"/>
<path d="M2118 1363 c12 -2 30 -2 40 0 9 3 -1 5 -23 4 -22 0 -30 -2 -17 -4z"/>
<path d="M2198 1353 c6 -2 18 -2 25 0 6 3 1 5 -13 5 -14 0 -19 -2 -12 -5z"/>
<path d="M1620 1341 c22 -13 400 -141 414 -140 6 0 -86 34 -204 74 -215 75
-238 82 -210 66z"/>
<path d="M2058 1193 c6 -2 18 -2 25 0 6 3 1 5 -13 5 -14 0 -19 -2 -12 -5z"/>
<path d="M2108 1183 c6 -2 18 -2 25 0 6 3 1 5 -13 5 -14 0 -19 -2 -12 -5z"/>
<path d="M3630 1121 c0 -5 18 -11 39 -15 22 -3 46 -9 55 -12 9 -3 16 -2 16 4
0 6 -23 15 -50 21 -61 13 -60 13 -60 2z"/>
<path d="M1475 4389 c-92 -48 -279 -165 -299 -188 -17 -18 -17 -21 -3 -27 18
-6 93 17 144 44 24 13 230 202 220 202 -1 0 -29 -14 -62 -31z"/>
<path d="M2821 4064 c0 -11 3 -14 6 -6 3 7 2 16 -1 19 -3 4 -6 -2 -5 -13z"/>
<path d="M895 3908 c-336 -386 -532 -863 -560 -1363 -10 -169 22 -535 46 -535
5 0 9 22 9 49 0 32 6 56 19 72 16 21 17 32 9 99 -6 41 -7 167 -5 280 5 168 10
227 31 325 50 236 136 474 219 613 19 31 44 76 56 100 30 59 219 307 280 366
49 48 50 50 36 77 -8 15 -19 30 -24 34 -5 3 -57 -50 -116 -117z"/>
<path d="M3272 3885 c-12 -25 -20 -45 -17 -45 7 0 47 81 43 86 -3 2 -14 -17
-26 -41z"/>
<path d="M1013 3872 c-63 -58 -236 -287 -282 -373 -159 -298 -205 -427 -263
-734 -18 -97 -22 -156 -22 -310 -1 -104 3 -211 7 -237 7 -40 12 -48 39 -57 41
-15 48 -14 42 4 -8 21 8 19 50 -6 30 -17 36 -18 36 -6 0 8 -20 25 -45 37 -31
15 -45 28 -45 42 0 19 2 19 45 -5 34 -19 45 -22 45 -11 0 7 -22 25 -50 39 -47
24 -50 27 -50 65 l0 40 57 -25 c31 -14 57 -24 59 -23 1 2 4 14 6 27 3 22 -4
27 -59 49 -57 22 -63 26 -63 53 0 22 5 29 19 29 17 0 18 3 8 30 -6 17 -15 30
-19 30 -4 0 -8 14 -8 30 0 23 4 30 20 30 10 0 24 9 30 20 9 18 8 20 -15 20
-22 0 -25 4 -25 36 l0 36 43 -6 c36 -6 46 -3 62 14 10 11 16 22 14 23 -2 2
-26 8 -54 13 -48 9 -50 10 -47 39 2 16 5 31 7 33 2 2 28 -2 59 -9 47 -10 60
-10 88 4 22 11 36 13 45 6 14 -13 27 10 38 66 10 58 77 228 135 347 52 105
129 225 225 350 l54 70 -75 65 c-41 36 -74 68 -74 72 1 11 27 41 35 41 5 0 20
-10 33 -22 28 -26 28 -25 -11 55 -16 31 -32 57 -35 57 -4 0 -30 -21 -59 -48z
m110 -204 c36 -32 37 -34 22 -55 l-16 -23 -69 51 c-38 28 -72 55 -76 60 -3 5
2 21 11 35 l16 25 37 -30 c20 -17 54 -45 75 -63z m-102 -44 c35 -26 68 -50 72
-54 11 -9 -9 -50 -24 -50 -12 0 -136 86 -144 101 -7 10 12 49 24 49 5 0 37
-21 72 -46z m-43 -88 c64 -49 73 -65 47 -86 -12 -10 -28 -4 -90 36 -41 27 -75
53 -75 57 0 19 33 57 44 49 6 -5 39 -30 74 -56z m-62 -73 c76 -48 82 -56 61
-84 -11 -14 -21 -11 -93 31 l-82 46 15 27 c7 15 16 27 20 27 3 0 39 -21 79
-47z m-49 -79 c43 -25 79 -47 81 -49 1 -1 -3 -14 -9 -28 l-12 -27 -88 48 -87
47 14 27 c8 16 17 28 19 28 2 0 39 -21 82 -46z m-36 -86 c44 -23 79 -45 79
-48 0 -3 -6 -14 -13 -24 -13 -17 -17 -16 -88 14 -41 17 -78 35 -83 40 -11 11
1 60 16 60 6 0 46 -19 89 -42z m-44 -80 c77 -31 97 -48 73 -63 -5 -3 -18 -1
-28 4 -13 7 -22 7 -30 -1 -9 -9 -26 -6 -69 12 -32 13 -59 24 -61 25 -4 4 21
55 27 55 3 0 43 -15 88 -32z m-69 -98 c23 -10 42 -25 42 -33 0 -8 11 -19 25
-25 26 -12 35 -42 13 -42 -11 0 -157 49 -166 56 -2 1 -1 16 3 33 8 36 23 38
83 11z m120 -12 c-3 -25 -25 -33 -47 -19 -21 14 -5 41 24 41 22 0 26 -4 23
-22z m-85 -115 c37 -15 44 -27 28 -52 -7 -10 -16 -11 -42 -3 -19 6 -60 18 -91
26 -57 16 -57 16 -47 45 l10 29 52 -15 c29 -8 69 -22 90 -30z m-35 -93 c57
-15 59 -45 3 -54 -22 -3 -45 -4 -53 -1 -7 2 -32 9 -55 15 -38 9 -43 14 -43 39
0 15 2 30 5 33 3 3 27 0 53 -8 26 -7 66 -18 90 -24z"/>
<path d="M3413 3848 c-23 -30 -24 -41 -2 -21 12 12 20 25 17 28 -3 3 -10 0
-15 -7z"/>
<path d="M3519 3753 c-13 -16 -12 -17 4 -4 9 7 17 15 17 17 0 8 -8 3 -21 -13z"/>
<path d="M3573 3718 c-26 -30 -40 -53 -25 -44 12 7 56 66 49 66 -2 0 -13 -10
-24 -22z"/>
<path d="M3624 3668 l-19 -23 23 19 c12 11 22 21 22 23 0 8 -8 2 -26 -19z"/>
<path d="M1224 3468 c-4 -7 -3 -10 1 -5 5 4 20 -3 34 -15 l26 -23 -24 28 c-28
31 -28 31 -37 15z"/>
<path d="M1060 3235 c0 -6 56 -35 67 -35 4 0 -7 9 -25 20 -33 20 -42 24 -42
15z"/>
<path d="M1210 3136 c0 -2 8 -10 18 -17 15 -13 16 -12 3 4 -13 16 -21 21 -21
13z"/>
<path d="M991 3106 c2 -2 20 -11 39 -20 l35 -17 -25 20 c-14 11 -31 21 -39 21
-8 0 -12 -2 -10 -4z"/>
<path d="M965 3040 c3 -5 14 -10 23 -10 15 0 15 2 2 10 -20 13 -33 13 -25 0z"/>
<path d="M945 2970 c3 -5 8 -10 11 -10 2 0 4 5 4 10 0 6 -5 10 -11 10 -5 0 -7
-4 -4 -10z"/>
<path d="M920 2900 c0 -5 5 -10 11 -10 5 0 7 5 4 10 -3 6 -8 10 -11 10 -2 0
-4 -4 -4 -10z"/>
<path d="M620 2431 c14 -11 31 -21 39 -21 18 0 14 4 -29 24 l-35 17 25 -20z"/>
</g>
</svg>
